<svg xmlns="http://www.w3.org/2000/svg" width="87" height="78" fill="none"><path fill="#EBEBEB" d="M1.444 7.222h83.778v66.445a2.89 2.89 0 0 1-2.889 2.888h-78a2.89 2.89 0 0 1-2.889-2.888V7.222Z"/><path fill="#428DC5" d="M1.444 7.222h83.778v11.556H1.444V7.222Z"/><path fill="#8DC79D" d="M34.174 34.663A14.451 14.451 0 1 1 9.139 20.22a14.451 14.451 0 0 1 25.035 14.443Z"/><path fill="#AAE5C8" d="M32.919 33.939a13.001 13.001 0 1 1-22.524-12.994A13.001 13.001 0 0 1 32.92 33.939Z"/><path fill="#428DC5" d="M34.174 34.663a14.576 14.576 0 0 1-2.192 2.889h-7.43a4.338 4.338 0 0 1-4.333-4.333v-2.89h2.889v2.89a1.444 1.444 0 0 0 1.444 1.444h9.622Z"/><path fill="#DBDBDB" d="M20.222 56.333a4.333 4.333 0 1 0 0-8.666 4.333 4.333 0 0 0 0 8.666ZM20.222 70.778a4.333 4.333 0 1 0 0-8.667 4.333 4.333 0 0 0 0 8.667Z"/><path fill="#DC4D41" d="M20.222 53.444a1.442 1.442 0 0 1-1.021-.423l-2.89-2.889a1.444 1.444 0 1 1 2.044-2.042l1.974 1.974 6.213-4.97a1.444 1.444 0 1 1 1.805 2.256l-7.222 5.778a1.44 1.44 0 0 1-.903.316Z"/><path fill="#DBDBDB" d="M33.222 47.667h2.89v2.889h-2.89v-2.89ZM39 47.667h15.889v2.889H39v-2.89ZM33.222 53.444h8.667v2.89h-8.667v-2.89ZM44.778 53.444h8.666v2.89h-8.666v-2.89ZM46.222 37.556a4.333 4.333 0 1 0 0-8.667 4.333 4.333 0 0 0 0 8.667Z"/><path fill="#DC4D41" d="M46.222 34.667a1.44 1.44 0 0 1-1.021-.423l-2.89-2.89a1.444 1.444 0 1 1 2.044-2.042l1.974 1.975 6.213-4.97a1.445 1.445 0 1 1 1.805 2.255l-7.222 5.778a1.44 1.44 0 0 1-.903.317Z"/><path fill="#DBDBDB" d="M59.222 28.889h2.89v2.889h-2.89v-2.89ZM65 28.889h13v2.889H65v-2.89ZM59.222 34.667h11.556v2.889H59.222v-2.89ZM73.666 34.667H78v2.889h-4.334v-2.89ZM33.222 62.111h2.89V65h-2.89V62.11ZM39 62.111h15.889V65H39V62.11ZM33.222 67.889h10.111v2.889h-10.11v-2.89ZM46.222 67.889H65v2.889H46.222v-2.89ZM37.556 4.333a2.889 2.889 0 0 0-5.778 0v5.778a2.889 2.889 0 1 0 5.778 0V4.333ZM20.222 4.333a2.889 2.889 0 0 0-5.778 0v5.778a2.889 2.889 0 1 0 5.778 0V4.333ZM54.889 4.333a2.889 2.889 0 0 0-5.778 0v5.778a2.889 2.889 0 1 0 5.778 0V4.333ZM72.222 4.333a2.889 2.889 0 0 0-5.778 0v5.778a2.889 2.889 0 1 0 5.778 0V4.333Z"/><path fill="#FBB540" d="M78.97 60.033a14.451 14.451 0 1 1-27.946-7.376 14.451 14.451 0 0 1 27.945 7.376Z"/><path fill="#DA922A" d="M78.97 60.033a14.475 14.475 0 0 1-13.582 10.745H65l-2.89-8.667h-3.408a2.887 2.887 0 0 1-2.833-2.322l-.98-4.9 4.333-1.445 2.889-4.333h8.667l8.191 10.922Z"/><path fill="#834B10" d="M75.111 54.889v5.778a2.889 2.889 0 0 1-5.778 0V49.11h1.445l4.333 5.778ZM62.111 54.889h2.89v2.889h-2.89v-2.89Z"/><path fill="#4799CF" d="M21.664 31.775a5.785 5.785 0 0 1-5.778-5.778v-2.889a1.443 1.443 0 0 1 .799-1.292l2.889-1.444 1.292 2.584L18.776 24v1.996a2.889 2.889 0 0 0 5.777 0v-1.996l-2.09-1.045 1.291-2.584 2.89 1.444a1.445 1.445 0 0 1 .798 1.292v2.89a5.784 5.784 0 0 1-5.778 5.777Z"/><path fill="#000" d="M85.222 5.778H73.667V4.333a4.334 4.334 0 0 0-8.667 0v1.445h-8.667V4.333a4.333 4.333 0 1 0-8.666 0v1.445H39V4.333a4.333 4.333 0 1 0-8.667 0v1.445h-8.666V4.333a4.334 4.334 0 0 0-8.667 0v1.445H1.444A1.444 1.444 0 0 0 0 7.222v66.445A4.338 4.338 0 0 0 4.333 78h78a4.338 4.338 0 0 0 4.334-4.333V7.222a1.444 1.444 0 0 0-1.445-1.444ZM67.89 4.333a1.444 1.444 0 0 1 2.889 0v5.778a1.444 1.444 0 0 1-2.89 0V4.333Zm-17.333 0a1.444 1.444 0 1 1 2.888 0v5.778a1.444 1.444 0 1 1-2.888 0V4.333Zm-17.334 0a1.444 1.444 0 0 1 2.89 0v5.778a1.444 1.444 0 0 1-2.89 0V4.333Zm1.182 20.52a12.914 12.914 0 0 1-1.902 9.767l-.03.044h-7.92a1.446 1.446 0 0 1-1.444-1.445v-1.627a5.788 5.788 0 0 0 4.334-5.595v-2.889a1.446 1.446 0 0 0-.799-1.292l-2.889-1.444-1.292 2.584L24.552 24v1.996a2.889 2.889 0 0 1-5.777 0v-1.996l2.09-1.045-1.292-2.584-2.889 1.444a1.445 1.445 0 0 0-.798 1.292v2.89a5.789 5.789 0 0 0 4.333 5.594v1.627a4.338 4.338 0 0 0 4.334 4.334h5.288a13.003 13.003 0 1 1 4.563-12.7ZM15.889 4.334a1.444 1.444 0 0 1 2.889 0v5.778a1.444 1.444 0 0 1-2.89 0V4.333Zm-13 4.334H13v1.444a4.323 4.323 0 0 0 1.408 3.194 15.863 15.863 0 0 0-4.993 4.028H2.89V8.667Zm80.889 65a1.447 1.447 0 0 1-1.445 1.444h-78a1.446 1.446 0 0 1-1.444-1.444V20.222h4.63a15.883 15.883 0 1 0 28.3 0h47.959v53.445Zm0-56.334h-49.86a15.937 15.937 0 0 0-12.5-5.78c.165-.462.249-.95.249-1.442V8.667h8.666v1.444a4.333 4.333 0 0 0 8.667 0V8.667h8.667v1.444a4.333 4.333 0 1 0 8.666 0V8.667H65v1.444a4.333 4.333 0 0 0 8.667 0V8.667h10.11v8.666Z"/><path fill="#000" d="M49.373 53.444h-4.595v2.89h4.332a15.988 15.988 0 0 0 1.09 5.777H39v2.89h12.687a15.877 15.877 0 0 0 2.418 2.888h-7.883v2.889h12.17a15.812 15.812 0 0 0 6.975 1.444h.021a15.89 15.89 0 1 0-13.632-24.66c-.022.035-.042.07-.065.105H39v2.889h11.201a15.713 15.713 0 0 0-.828 2.889Zm18.218 15.632c-.516.104-1.037.176-1.562.217l-2.546-7.639a1.445 1.445 0 0 0-1.372-.987h-3.409a1.446 1.446 0 0 1-1.416-1.161l-.73-3.65 3.123-1.041c.305-.102.567-.302.745-.57l2.46-3.69h5.005v10.112a4.333 4.333 0 1 0 8.667 0v-1.445l.818 1.091a13.007 13.007 0 0 1-9.783 8.763Zm3.187-8.41V51.52l.035.046 2.854 3.806v5.296a1.444 1.444 0 0 1-2.89 0ZM54.164 49.159a13.001 13.001 0 0 1 23.84 7.18l-6.07-8.093a1.445 1.445 0 0 0-1.156-.578H62.11a1.445 1.445 0 0 0-1.202.643l-2.614 3.92-3.864 1.289a1.444 1.444 0 0 0-.96 1.653l.98 4.9a4.344 4.344 0 0 0 4.251 3.484h2.368l1.872 5.615a12.999 12.999 0 0 1-8.777-20.012v-.001ZM20.222 60.667A5.777 5.777 0 1 0 26 66.445a5.784 5.784 0 0 0-5.778-5.778Zm0 8.666a2.89 2.89 0 1 1 0-5.778 2.89 2.89 0 0 1 0 5.778ZM26.542 45.094l-2.856 2.285a5.784 5.784 0 1 0 1.806 2.255l2.855-2.284a1.445 1.445 0 1 0-1.805-2.256Zm-6.32 4.017c.36 0 .715.068 1.05.2l-.942.753-.853-.852c.243-.066.494-.1.745-.1Zm0 5.778a2.88 2.88 0 0 1-2.788-3.634l1.767 1.766a1.445 1.445 0 0 0 1.924.107l1.95-1.56a2.866 2.866 0 0 1-1.644 3.063 2.87 2.87 0 0 1-1.209.258Z"/><path fill="#000" d="M62.111 54.889h2.89v2.889h-2.89v-2.89ZM33.222 47.667h2.89v2.889h-2.89v-2.89ZM33.222 53.444h8.667v2.89h-8.667v-2.89ZM46.222 39a5.775 5.775 0 0 0 5.27-8.143l2.855-2.285a1.445 1.445 0 1 0-1.806-2.255L49.687 28.6a5.776 5.776 0 0 0-8.151 8.001A5.777 5.777 0 0 0 46.222 39Zm0-8.667c.36 0 .715.069 1.049.2l-.942.754-.852-.853c.243-.066.493-.1.745-.1Zm-2.788 2.144 1.767 1.767a1.445 1.445 0 0 0 1.923.106l1.95-1.56a2.888 2.888 0 1 1-5.64-.313ZM59.222 28.889h2.89v2.889h-2.89v-2.89ZM65 28.889h13v2.889H65v-2.89ZM59.222 34.667h11.556v2.889H59.222v-2.89ZM73.666 34.667H78v2.889h-4.334v-2.89ZM33.222 62.111h2.89V65h-2.89v-2.889ZM33.222 67.889h10.111v2.889h-10.11v-2.89Z"/></svg>