<svg width="1414" height="1872" viewBox="0 0 1414 1872" fill="none" xmlns="http://www.w3.org/2000/svg">
<path d="M376.504 64.9534C378.27 64.8346 380.643 64.3853 381.518 63.5102C382.393 62.635 382.842 60.2624 382.961 58.4965C383.094 56.5193 382.974 53.5655 381.644 50.7232C381.427 50.2581 380.943 49.977 380.431 50.018C377.643 50.2414 374.995 51.3286 372.857 53.109L369.365 49.6189C371.439 47.8052 373.902 46.472 376.554 45.7363C377.209 45.5547 377.592 44.8766 377.411 44.2217C377.229 43.5668 376.551 43.1831 375.896 43.3648C372.835 44.2137 369.998 45.7639 367.621 47.8755L364.135 44.3902C366.152 42.5533 368.426 41.0609 370.909 39.9464C371.529 39.6681 371.806 38.9399 371.527 38.3198C371.249 37.6998 370.521 37.4228 369.901 37.7011C367.144 38.9386 364.624 40.6004 362.392 42.6486L358.909 39.1663C360.399 37.7818 362.011 36.5358 363.715 35.4541C364.289 35.09 364.459 34.3297 364.094 33.7557C363.73 33.1819 362.97 33.0121 362.396 33.3763C360.54 34.5547 358.786 35.914 357.167 37.4254L354.351 34.6101C355.463 33.129 356.065 31.3365 356.065 29.4512C356.065 27.1504 355.169 24.9873 353.542 23.3605C353.221 23.0395 352.75 22.9213 352.316 23.0528C351.881 23.1844 351.555 23.5442 351.466 23.9893C350.506 28.7863 346.787 32.5057 341.99 33.4652C341.545 33.5542 341.185 33.8809 341.053 34.3153C341.018 34.4327 341 34.5527 341 34.6718C341 34.9934 341.126 35.3078 341.361 35.542C342.988 37.1689 345.151 38.0648 347.451 38.0648C349.337 38.0648 351.129 37.4627 352.611 36.3503L355.427 39.1658C353.918 40.7826 352.56 42.5346 351.384 44.3885C351.254 44.593 351.192 44.8212 351.192 45.0467C351.192 45.454 351.394 45.8524 351.763 46.0868C352.337 46.451 353.097 46.2812 353.461 45.7073C354.542 44.0053 355.786 42.3952 357.169 40.9066L360.652 44.3889C358.606 46.6188 356.945 49.138 355.708 51.8932C355.635 52.0569 355.6 52.228 355.6 52.3964C355.6 52.8663 355.871 53.3149 356.327 53.5198C356.947 53.7981 357.675 53.5211 357.954 52.901C359.068 50.4193 360.559 48.147 362.394 46.1306L365.881 49.6158C363.77 51.9919 362.221 54.8286 361.372 57.8884C361.342 57.9984 361.327 58.109 361.327 58.218C361.327 58.7571 361.684 59.252 362.229 59.403C362.884 59.5847 363.562 59.2011 363.744 58.5462C364.479 55.8947 365.812 53.4329 367.625 51.3592L371.116 54.8492C369.336 56.9877 368.249 59.635 368.025 62.4237C368.023 62.4567 368.022 62.4896 368.022 62.5223C368.022 62.9967 368.296 63.433 368.731 63.6365C371.573 64.9659 374.527 65.0864 376.504 64.9534ZM375.427 59.1596C374.947 58.6791 374.947 57.9 375.427 57.4194C375.908 56.9389 376.687 56.9389 377.168 57.4194C377.648 57.9 377.648 58.6791 377.168 59.1596C376.687 59.6402 375.908 59.6402 375.427 59.1596Z" fill="#F3F3F3"/>
<path d="M676.959 325.035C676.848 323.395 676.431 321.192 675.618 320.379C674.806 319.566 672.602 319.149 670.963 319.039C669.127 318.915 666.384 319.027 663.744 320.262C663.312 320.464 663.051 320.913 663.089 321.388C663.297 323.978 664.306 326.436 665.96 328.422L662.719 331.664C661.035 329.738 659.796 327.452 659.113 324.989C658.945 324.381 658.315 324.024 657.707 324.193C657.099 324.362 656.742 324.991 656.911 325.6C657.699 328.442 659.139 331.077 661.1 333.284L657.863 336.521C656.157 334.648 654.772 332.537 653.737 330.231C653.478 329.655 652.802 329.398 652.226 329.656C651.65 329.915 651.393 330.591 651.652 331.167C652.801 333.727 654.344 336.067 656.246 338.139L653.012 341.374C651.727 339.991 650.57 338.494 649.565 336.911C649.227 336.378 648.521 336.221 647.988 336.559C647.455 336.897 647.297 337.603 647.636 338.136C648.73 339.86 649.992 341.488 651.396 342.991L648.781 345.607C647.406 344.574 645.741 344.015 643.991 344.015C641.854 344.015 639.845 344.847 638.335 346.358C638.037 346.656 637.927 347.093 638.049 347.497C638.171 347.9 638.505 348.203 638.919 348.286C643.373 349.177 646.827 352.631 647.718 357.086C647.801 357.499 648.104 357.833 648.508 357.955C648.617 357.988 648.728 358.004 648.839 358.004C649.137 358.004 649.429 357.887 649.647 357.67C651.157 356.159 651.989 354.15 651.989 352.014C651.989 350.263 651.43 348.598 650.397 347.223L653.012 344.607C654.513 346.009 656.14 347.269 657.862 348.362C658.052 348.483 658.263 348.54 658.473 348.54C658.851 348.54 659.221 348.353 659.439 348.01C659.777 347.477 659.619 346.771 659.086 346.433C657.506 345.429 656.011 344.274 654.628 342.99L657.862 339.755C659.933 341.656 662.272 343.198 664.831 344.346C664.983 344.414 665.142 344.447 665.298 344.447C665.734 344.447 666.151 344.195 666.341 343.771C666.6 343.196 666.342 342.519 665.767 342.261C663.462 341.227 661.352 339.842 659.479 338.137L662.716 334.9C664.922 336.86 667.557 338.299 670.398 339.087C670.5 339.115 670.603 339.128 670.704 339.128C671.205 339.128 671.664 338.797 671.804 338.291C671.973 337.683 671.617 337.053 671.009 336.884C668.547 336.201 666.26 334.964 664.335 333.28L667.576 330.038C669.561 331.691 672.02 332.701 674.609 332.908C674.64 332.911 674.671 332.912 674.701 332.912C675.142 332.912 675.547 332.657 675.736 332.253C676.97 329.614 677.082 326.871 676.959 325.035ZM671.578 326.035C671.132 326.481 670.409 326.481 669.962 326.035C669.516 325.589 669.516 324.865 669.962 324.419C670.409 323.973 671.132 323.973 671.578 324.419C672.025 324.865 672.025 325.589 671.578 326.035Z" fill="#F3F3F3"/>
<g opacity="0.09">
<path d="M756.959 715.035C756.848 713.395 756.431 711.192 755.618 710.379C754.806 709.566 752.602 709.149 750.963 709.039C749.127 708.915 746.384 709.027 743.744 710.262C743.312 710.464 743.051 710.913 743.089 711.388C743.297 713.978 744.306 716.436 745.96 718.422L742.719 721.664C741.035 719.738 739.796 717.452 739.113 714.989C738.945 714.381 738.315 714.024 737.707 714.193C737.099 714.362 736.742 714.991 736.911 715.6C737.699 718.442 739.139 721.077 741.1 723.284L737.863 726.521C736.157 724.648 734.772 722.537 733.737 720.231C733.478 719.655 732.802 719.398 732.226 719.656C731.65 719.915 731.393 720.591 731.652 721.167C732.801 723.727 734.344 726.067 736.246 728.139L733.012 731.374C731.727 729.991 730.57 728.494 729.565 726.911C729.227 726.378 728.521 726.221 727.988 726.559C727.455 726.897 727.297 727.603 727.636 728.136C728.73 729.86 729.992 731.488 731.396 732.991L728.781 735.607C727.406 734.574 725.741 734.015 723.991 734.015C721.854 734.015 719.845 734.847 718.335 736.358C718.037 736.656 717.927 737.093 718.049 737.497C718.171 737.9 718.505 738.203 718.919 738.286C723.373 739.177 726.827 742.631 727.718 747.086C727.801 747.499 728.104 747.833 728.508 747.955C728.617 747.988 728.728 748.004 728.839 748.004C729.137 748.004 729.429 747.887 729.647 747.67C731.157 746.159 731.989 744.15 731.989 742.014C731.989 740.263 731.43 738.598 730.397 737.223L733.012 734.607C734.513 736.009 736.14 737.269 737.862 738.362C738.052 738.483 738.263 738.54 738.473 738.54C738.851 738.54 739.221 738.353 739.439 738.01C739.777 737.477 739.619 736.771 739.086 736.433C737.506 735.429 736.011 734.274 734.628 732.99L737.862 729.755C739.933 731.656 742.272 733.198 744.831 734.346C744.983 734.414 745.142 734.447 745.298 734.447C745.734 734.447 746.151 734.195 746.341 733.771C746.6 733.196 746.342 732.519 745.767 732.261C743.462 731.227 741.352 729.842 739.479 728.137L742.716 724.9C744.922 726.86 747.557 728.299 750.398 729.087C750.5 729.115 750.603 729.128 750.704 729.128C751.205 729.128 751.664 728.797 751.804 728.291C751.973 727.683 751.617 727.053 751.009 726.884C748.547 726.201 746.26 724.964 744.335 723.28L747.576 720.038C749.561 721.691 752.02 722.701 754.609 722.908C754.64 722.911 754.671 722.912 754.701 722.912C755.142 722.912 755.547 722.657 755.736 722.253C756.97 719.614 757.082 716.871 756.959 715.035ZM751.578 716.035C751.132 716.481 750.409 716.481 749.962 716.035C749.516 715.589 749.516 714.865 749.962 714.419C750.409 713.973 751.132 713.973 751.578 714.419C752.025 714.865 752.025 715.589 751.578 716.035Z" fill="#78C0DE"/>
</g>
<g opacity="0.09">
<path d="M242.959 1292.03C242.848 1290.39 242.431 1288.19 241.618 1287.38C240.806 1286.57 238.602 1286.15 236.963 1286.04C235.127 1285.92 232.384 1286.03 229.744 1287.26C229.312 1287.46 229.051 1287.91 229.089 1288.39C229.297 1290.98 230.306 1293.44 231.96 1295.42L228.719 1298.66C227.035 1296.74 225.796 1294.45 225.113 1291.99C224.945 1291.38 224.315 1291.02 223.707 1291.19C223.099 1291.36 222.742 1291.99 222.911 1292.6C223.699 1295.44 225.139 1298.08 227.1 1300.28L223.863 1303.52C222.157 1301.65 220.772 1299.54 219.737 1297.23C219.478 1296.66 218.802 1296.4 218.226 1296.66C217.65 1296.91 217.393 1297.59 217.652 1298.17C218.801 1300.73 220.344 1303.07 222.246 1305.14L219.012 1308.37C217.727 1306.99 216.57 1305.49 215.565 1303.91C215.227 1303.38 214.521 1303.22 213.988 1303.56C213.455 1303.9 213.297 1304.6 213.636 1305.14C214.73 1306.86 215.992 1308.49 217.396 1309.99L214.781 1312.61C213.406 1311.57 211.741 1311.01 209.991 1311.01C207.854 1311.01 205.845 1311.85 204.335 1313.36C204.037 1313.66 203.927 1314.09 204.049 1314.5C204.171 1314.9 204.505 1315.2 204.919 1315.29C209.373 1316.18 212.827 1319.63 213.718 1324.09C213.801 1324.5 214.104 1324.83 214.508 1324.96C214.617 1324.99 214.728 1325 214.839 1325C215.137 1325 215.429 1324.89 215.647 1324.67C217.157 1323.16 217.989 1321.15 217.989 1319.01C217.989 1317.26 217.43 1315.6 216.397 1314.22L219.012 1311.61C220.513 1313.01 222.14 1314.27 223.862 1315.36C224.052 1315.48 224.263 1315.54 224.473 1315.54C224.851 1315.54 225.221 1315.35 225.439 1315.01C225.777 1314.48 225.619 1313.77 225.086 1313.43C223.506 1312.43 222.011 1311.27 220.628 1309.99L223.862 1306.76C225.933 1308.66 228.272 1310.2 230.831 1311.35C230.983 1311.41 231.142 1311.45 231.298 1311.45C231.734 1311.45 232.151 1311.2 232.341 1310.77C232.6 1310.2 232.342 1309.52 231.767 1309.26C229.462 1308.23 227.352 1306.84 225.479 1305.14L228.716 1301.9C230.922 1303.86 233.557 1305.3 236.398 1306.09C236.5 1306.11 236.603 1306.13 236.704 1306.13C237.205 1306.13 237.664 1305.8 237.804 1305.29C237.973 1304.68 237.617 1304.05 237.009 1303.88C234.547 1303.2 232.26 1301.96 230.335 1300.28L233.576 1297.04C235.561 1298.69 238.02 1299.7 240.609 1299.91C240.64 1299.91 240.671 1299.91 240.701 1299.91C241.142 1299.91 241.547 1299.66 241.736 1299.25C242.97 1296.61 243.082 1293.87 242.959 1292.03ZM237.578 1293.03C237.132 1293.48 236.409 1293.48 235.962 1293.03C235.516 1292.59 235.516 1291.87 235.962 1291.42C236.409 1290.97 237.132 1290.97 237.578 1291.42C238.025 1291.87 238.025 1292.59 237.578 1293.03Z" fill="#78C0DE"/>
</g>
<g opacity="0.09">
<path d="M1380.96 1839.03C1380.85 1837.39 1380.43 1835.19 1379.62 1834.38C1378.81 1833.57 1376.6 1833.15 1374.96 1833.04C1373.13 1832.92 1370.38 1833.03 1367.74 1834.26C1367.31 1834.46 1367.05 1834.91 1367.09 1835.39C1367.3 1837.98 1368.31 1840.44 1369.96 1842.42L1366.72 1845.66C1365.03 1843.74 1363.8 1841.45 1363.11 1838.99C1362.94 1838.38 1362.31 1838.02 1361.71 1838.19C1361.1 1838.36 1360.74 1838.99 1360.91 1839.6C1361.7 1842.44 1363.14 1845.08 1365.1 1847.28L1361.86 1850.52C1360.16 1848.65 1358.77 1846.54 1357.74 1844.23C1357.48 1843.66 1356.8 1843.4 1356.23 1843.66C1355.65 1843.91 1355.39 1844.59 1355.65 1845.17C1356.8 1847.73 1358.34 1850.07 1360.25 1852.14L1357.01 1855.37C1355.73 1853.99 1354.57 1852.49 1353.57 1850.91C1353.23 1850.38 1352.52 1850.22 1351.99 1850.56C1351.46 1850.9 1351.3 1851.6 1351.64 1852.14C1352.73 1853.86 1353.99 1855.49 1355.4 1856.99L1352.78 1859.61C1351.41 1858.57 1349.74 1858.01 1347.99 1858.01C1345.85 1858.01 1343.85 1858.85 1342.33 1860.36C1342.04 1860.66 1341.93 1861.09 1342.05 1861.5C1342.17 1861.9 1342.51 1862.2 1342.92 1862.29C1347.37 1863.18 1350.83 1866.63 1351.72 1871.09C1351.8 1871.5 1352.1 1871.83 1352.51 1871.96C1352.62 1871.99 1352.73 1872 1352.84 1872C1353.14 1872 1353.43 1871.89 1353.65 1871.67C1355.16 1870.16 1355.99 1868.15 1355.99 1866.01C1355.99 1864.26 1355.43 1862.6 1354.4 1861.22L1357.01 1858.61C1358.51 1860.01 1360.14 1861.27 1361.86 1862.36C1362.05 1862.48 1362.26 1862.54 1362.47 1862.54C1362.85 1862.54 1363.22 1862.35 1363.44 1862.01C1363.78 1861.48 1363.62 1860.77 1363.09 1860.43C1361.51 1859.43 1360.01 1858.27 1358.63 1856.99L1361.86 1853.76C1363.93 1855.66 1366.27 1857.2 1368.83 1858.35C1368.98 1858.41 1369.14 1858.45 1369.3 1858.45C1369.73 1858.45 1370.15 1858.2 1370.34 1857.77C1370.6 1857.2 1370.34 1856.52 1369.77 1856.26C1367.46 1855.23 1365.35 1853.84 1363.48 1852.14L1366.72 1848.9C1368.92 1850.86 1371.56 1852.3 1374.4 1853.09C1374.5 1853.11 1374.6 1853.13 1374.7 1853.13C1375.2 1853.13 1375.66 1852.8 1375.8 1852.29C1375.97 1851.68 1375.62 1851.05 1375.01 1850.88C1372.55 1850.2 1370.26 1848.96 1368.33 1847.28L1371.58 1844.04C1373.56 1845.69 1376.02 1846.7 1378.61 1846.91C1378.64 1846.91 1378.67 1846.91 1378.7 1846.91C1379.14 1846.91 1379.55 1846.66 1379.74 1846.25C1380.97 1843.61 1381.08 1840.87 1380.96 1839.03ZM1375.58 1840.03C1375.13 1840.48 1374.41 1840.48 1373.96 1840.03C1373.52 1839.59 1373.52 1838.87 1373.96 1838.42C1374.41 1837.97 1375.13 1837.97 1375.58 1838.42C1376.02 1838.87 1376.02 1839.59 1375.58 1840.03Z" fill="#78C0DE"/>
</g>
<path d="M63.9522 633.428C63.8164 631.409 63.3029 628.698 62.3026 627.697C61.3023 626.697 58.5904 626.183 56.5721 626.048C54.3122 625.896 50.936 626.034 47.6873 627.553C47.1557 627.802 46.8343 628.354 46.8812 628.939C47.1365 632.127 48.3792 635.153 50.4142 637.597L46.425 641.588C44.3521 639.217 42.8282 636.403 41.9873 633.371C41.7797 632.623 41.0046 632.184 40.2561 632.392C39.5076 632.599 39.069 633.375 39.2767 634.123C40.247 637.622 42.0189 640.865 44.4324 643.581L40.4488 647.566C38.3492 645.26 36.6434 642.662 35.3695 639.824C35.0514 639.115 34.2191 638.798 33.5104 639.116C32.8017 639.434 32.4851 640.267 32.8032 640.975C34.2176 644.126 36.117 647.007 38.4581 649.557L34.4779 653.539C32.8954 651.836 31.4713 649.994 30.2349 648.046C29.8187 647.39 28.9497 647.196 28.2936 647.612C27.6378 648.029 27.4437 648.898 27.86 649.553C29.2068 651.675 30.7605 653.68 32.4881 655.53L29.2702 658.749C27.5774 657.478 25.5285 656.79 23.3737 656.79C20.7439 656.79 18.2715 657.814 16.412 659.673C16.0452 660.04 15.9101 660.579 16.0604 661.075C16.2108 661.572 16.622 661.945 17.1307 662.047C22.6137 663.143 26.8649 667.395 27.9616 672.878C28.0633 673.386 28.4367 673.798 28.9332 673.948C29.0674 673.989 29.2046 674.009 29.3407 674.009C29.7083 674.009 30.0677 673.864 30.3353 673.597C32.1949 671.737 33.2189 669.265 33.2189 666.635C33.2189 664.48 32.5307 662.431 31.2592 660.738L34.4773 657.519C36.3253 659.244 38.3278 660.795 40.4468 662.14C40.6805 662.289 40.9413 662.36 41.1991 662.36C41.6646 662.36 42.12 662.129 42.388 661.707C42.8042 661.051 42.6101 660.182 41.9542 659.766C40.0087 658.531 38.1685 657.109 36.467 655.528L40.4473 651.547C42.996 653.886 45.8754 655.784 49.0246 657.197C49.2117 657.281 49.4073 657.321 49.5998 657.321C50.1369 657.321 50.6496 657.012 50.8837 656.49C51.2019 655.781 50.8852 654.949 50.1765 654.631C47.3399 653.358 44.7427 651.653 42.4379 649.555L46.4215 645.57C49.1374 647.983 52.3797 649.754 55.877 650.724C56.0028 650.759 56.1292 650.775 56.2538 650.775C56.8699 650.775 57.4356 650.367 57.6082 649.744C57.8158 648.996 57.3774 648.221 56.6288 648.013C53.5982 647.172 50.7844 645.649 48.4142 643.577L52.4033 639.586C54.8475 641.621 57.8733 642.864 61.0608 643.119C61.0985 643.122 61.1361 643.124 61.1735 643.124C61.7157 643.124 62.2145 642.81 62.447 642.313C63.9665 639.064 64.1042 635.688 63.9522 633.428ZM57.33 634.659C56.7807 635.208 55.8902 635.208 55.341 634.659C54.7917 634.11 54.7917 633.219 55.341 632.67C55.8902 632.121 56.7807 632.121 57.33 632.67C57.8793 633.219 57.8793 634.11 57.33 634.659Z" fill="#F3F3F3"/>
<path d="M1187.95 546.892C1187.8 544.747 1187.26 541.866 1186.2 540.803C1185.13 539.74 1182.25 539.195 1180.11 539.051C1177.71 538.889 1174.12 539.036 1170.67 540.65C1170.1 540.914 1169.76 541.501 1169.81 542.123C1170.08 545.51 1171.4 548.725 1173.57 551.322L1169.33 555.562C1167.12 553.043 1165.5 550.053 1164.61 546.832C1164.39 546.037 1163.57 545.571 1162.77 545.791C1161.98 546.012 1161.51 546.835 1161.73 547.631C1162.76 551.348 1164.65 554.794 1167.21 557.68L1162.98 561.914C1160.75 559.464 1158.93 556.703 1157.58 553.688C1157.24 552.935 1156.36 552.598 1155.6 552.936C1154.85 553.274 1154.52 554.158 1154.85 554.911C1156.36 558.259 1158.37 561.32 1160.86 564.03L1156.63 568.26C1154.95 566.451 1153.44 564.493 1152.12 562.424C1151.68 561.727 1150.76 561.521 1150.06 561.963C1149.37 562.405 1149.16 563.329 1149.6 564.026C1151.03 566.28 1152.68 568.41 1154.52 570.375L1151.1 573.796C1149.3 572.445 1147.12 571.714 1144.83 571.714C1142.04 571.714 1139.41 572.802 1137.44 574.778C1137.05 575.167 1136.9 575.74 1137.06 576.267C1137.22 576.795 1137.66 577.192 1138.2 577.3C1144.03 578.465 1148.54 582.982 1149.71 588.808C1149.82 589.348 1150.21 589.785 1150.74 589.945C1150.88 589.988 1151.03 590.009 1151.17 590.009C1151.57 590.009 1151.95 589.856 1152.23 589.571C1154.21 587.595 1155.3 584.969 1155.3 582.175C1155.3 579.885 1154.56 577.708 1153.21 575.909L1156.63 572.489C1158.6 574.322 1160.72 575.97 1162.97 577.399C1163.22 577.557 1163.5 577.632 1163.77 577.632C1164.27 577.632 1164.75 577.387 1165.04 576.939C1165.48 576.242 1165.27 575.318 1164.58 574.876C1162.51 573.564 1160.55 572.053 1158.75 570.374L1162.98 566.143C1165.68 568.628 1168.74 570.645 1172.09 572.147C1172.29 572.236 1172.5 572.278 1172.7 572.278C1173.27 572.278 1173.82 571.95 1174.06 571.396C1174.4 570.643 1174.07 569.758 1173.31 569.42C1170.3 568.067 1167.54 566.256 1165.09 564.027L1169.32 559.793C1172.21 562.357 1175.65 564.238 1179.37 565.269C1179.5 565.306 1179.64 565.324 1179.77 565.324C1180.42 565.324 1181.03 564.89 1181.21 564.228C1181.43 563.433 1180.96 562.609 1180.17 562.389C1176.95 561.496 1173.96 559.877 1171.44 557.675L1175.68 553.436C1178.28 555.598 1181.49 556.918 1184.88 557.189C1184.92 557.192 1184.96 557.194 1185 557.194C1185.57 557.194 1186.1 556.861 1186.35 556.333C1187.96 552.88 1188.11 549.293 1187.95 546.892ZM1180.91 548.2C1180.33 548.784 1179.38 548.784 1178.8 548.2C1178.22 547.616 1178.22 546.67 1178.8 546.087C1179.38 545.503 1180.33 545.503 1180.91 546.087C1181.5 546.67 1181.5 547.617 1180.91 548.2Z" fill="#F3F3F3"/>
<path d="M1080.95 1061.89C1080.8 1059.75 1080.26 1056.87 1079.2 1055.8C1078.13 1054.74 1075.25 1054.19 1073.11 1054.05C1070.71 1053.89 1067.12 1054.04 1063.67 1055.65C1063.1 1055.91 1062.76 1056.5 1062.81 1057.12C1063.08 1060.51 1064.4 1063.72 1066.57 1066.32L1062.33 1070.56C1060.12 1068.04 1058.5 1065.05 1057.61 1061.83C1057.39 1061.04 1056.57 1060.57 1055.77 1060.79C1054.98 1061.01 1054.51 1061.84 1054.73 1062.63C1055.76 1066.35 1057.65 1069.79 1060.21 1072.68L1055.98 1076.91C1053.75 1074.46 1051.93 1071.7 1050.58 1068.69C1050.24 1067.93 1049.36 1067.6 1048.6 1067.94C1047.85 1068.27 1047.52 1069.16 1047.85 1069.91C1049.36 1073.26 1051.37 1076.32 1053.86 1079.03L1049.63 1083.26C1047.95 1081.45 1046.44 1079.49 1045.12 1077.42C1044.68 1076.73 1043.76 1076.52 1043.06 1076.96C1042.37 1077.41 1042.16 1078.33 1042.6 1079.03C1044.03 1081.28 1045.68 1083.41 1047.52 1085.38L1044.1 1088.8C1042.3 1087.44 1040.12 1086.71 1037.83 1086.71C1035.04 1086.71 1032.41 1087.8 1030.44 1089.78C1030.05 1090.17 1029.9 1090.74 1030.06 1091.27C1030.22 1091.79 1030.66 1092.19 1031.2 1092.3C1037.03 1093.46 1041.54 1097.98 1042.71 1103.81C1042.82 1104.35 1043.21 1104.79 1043.74 1104.94C1043.88 1104.99 1044.03 1105.01 1044.17 1105.01C1044.57 1105.01 1044.95 1104.86 1045.23 1104.57C1047.21 1102.6 1048.3 1099.97 1048.3 1097.17C1048.3 1094.88 1047.56 1092.71 1046.21 1090.91L1049.63 1087.49C1051.6 1089.32 1053.72 1090.97 1055.97 1092.4C1056.22 1092.56 1056.5 1092.63 1056.77 1092.63C1057.27 1092.63 1057.75 1092.39 1058.04 1091.94C1058.48 1091.24 1058.27 1090.32 1057.58 1089.88C1055.51 1088.56 1053.55 1087.05 1051.75 1085.37L1055.98 1081.14C1058.68 1083.63 1061.74 1085.65 1065.09 1087.15C1065.29 1087.24 1065.5 1087.28 1065.7 1087.28C1066.27 1087.28 1066.82 1086.95 1067.06 1086.4C1067.4 1085.64 1067.07 1084.76 1066.31 1084.42C1063.3 1083.07 1060.54 1081.26 1058.09 1079.03L1062.32 1074.79C1065.21 1077.36 1068.65 1079.24 1072.37 1080.27C1072.5 1080.31 1072.64 1080.32 1072.77 1080.32C1073.42 1080.32 1074.03 1079.89 1074.21 1079.23C1074.43 1078.43 1073.96 1077.61 1073.17 1077.39C1069.95 1076.5 1066.96 1074.88 1064.44 1072.68L1068.68 1068.44C1071.28 1070.6 1074.49 1071.92 1077.88 1072.19C1077.92 1072.19 1077.96 1072.19 1078 1072.19C1078.57 1072.19 1079.1 1071.86 1079.35 1071.33C1080.96 1067.88 1081.11 1064.29 1080.95 1061.89ZM1073.91 1063.2C1073.33 1063.78 1072.38 1063.78 1071.8 1063.2C1071.22 1062.62 1071.22 1061.67 1071.8 1061.09C1072.38 1060.5 1073.33 1060.5 1073.91 1061.09C1074.5 1061.67 1074.5 1062.62 1073.91 1063.2Z" fill="#F3F3F3"/>
<g opacity="0.09">
<path d="M1236.11 59.2477C1234.52 60.3144 1232.54 62.0191 1232.19 63.3127C1231.85 64.6062 1232.71 67.0726 1233.55 68.7916C1234.5 70.7163 1236.21 73.4191 1238.99 75.3632C1239.45 75.6814 1240.06 75.6833 1240.51 75.3679C1243.01 73.6498 1244.9 71.1987 1245.94 68.3734L1251.1 69.755C1250.14 72.5765 1248.55 75.1582 1246.46 77.2824C1245.95 77.8069 1245.95 78.65 1246.48 79.1653C1247 79.6808 1247.85 79.6734 1248.36 79.1488C1250.77 76.6974 1252.59 73.7096 1253.68 70.445L1258.83 71.8248C1257.93 74.6376 1256.61 77.2661 1254.89 79.6539C1254.45 80.2501 1254.59 81.0824 1255.19 81.5128C1255.78 81.9433 1256.61 81.8089 1257.04 81.2126C1258.96 78.5616 1260.42 75.6406 1261.4 72.5142L1266.55 73.8927C1265.9 75.9962 1265.07 78.0358 1264.06 79.9716C1263.72 80.6231 1263.97 81.4275 1264.62 81.7684C1265.27 82.109 1266.08 81.8567 1266.42 81.205C1267.52 79.0965 1268.43 76.8738 1269.13 74.5818L1273.29 75.6963C1273.05 77.6859 1273.45 79.6914 1274.47 81.458C1275.72 83.614 1277.73 85.1563 1280.13 85.8006C1280.61 85.9277 1281.11 85.7834 1281.45 85.4252C1281.78 85.0669 1281.9 84.553 1281.74 84.0878C1280.04 79.0735 1281.52 73.5758 1285.49 70.0813C1285.86 69.7572 1286.02 69.2563 1285.91 68.7781C1285.88 68.6489 1285.83 68.5271 1285.77 68.4154C1285.59 68.1141 1285.3 67.8877 1284.96 67.7951C1282.55 67.1508 1280.04 67.4814 1277.88 68.7262C1276.12 69.7462 1274.76 71.2802 1273.98 73.1241L1269.81 72.0095C1270.35 69.6778 1270.68 67.3017 1270.78 64.9277C1270.79 64.6659 1270.72 64.4185 1270.6 64.2072C1270.38 63.8255 1269.98 63.5615 1269.5 63.5416C1268.77 63.5107 1268.15 64.0813 1268.12 64.816C1268.03 66.9956 1267.73 69.1774 1267.24 71.3204L1262.09 69.9419C1262.8 66.7451 1263 63.4861 1262.67 60.2351C1262.65 60.0419 1262.59 59.8628 1262.49 59.705C1262.24 59.2646 1261.74 58.9907 1261.21 59.0457C1260.47 59.1203 1259.94 59.7739 1260.02 60.5054C1260.31 63.4337 1260.15 66.3698 1259.52 69.2524L1254.37 67.8728C1255.06 64.5043 1254.97 61.0077 1254.11 57.6813C1254.08 57.5617 1254.04 57.4502 1253.98 57.3481C1253.69 56.8429 1253.08 56.5724 1252.49 56.7256C1251.78 56.9097 1251.35 57.6361 1251.54 58.348C1252.28 61.2305 1252.36 64.2585 1251.79 67.1826L1246.63 65.801C1247.14 62.8339 1246.73 59.7651 1245.43 57.031C1245.41 56.9987 1245.39 56.9671 1245.38 56.9365C1245.12 56.4919 1244.63 56.2313 1244.11 56.2761C1240.73 56.5682 1237.89 58.0533 1236.11 59.2477ZM1240.26 64.0942C1240.97 64.2846 1241.39 65.0146 1241.2 65.725C1241.01 66.4353 1240.28 66.8568 1239.57 66.6665C1238.86 66.4761 1238.43 65.7461 1238.63 65.0357C1238.82 64.3254 1239.55 63.9038 1240.26 64.0942Z" fill="#FFBD54"/>
</g>
<path opacity="0.09" d="M632.852 80.1109L626.963 74.2985C626.56 73.9005 625.906 73.9005 625.503 74.2985C625.1 74.6964 625.1 75.3417 625.503 75.7396L631.391 81.552C633.451 83.5849 633.451 86.8927 631.391 88.9257C630.404 89.9008 629.074 90.4254 627.653 90.4062C626.231 90.3857 624.892 89.8267 623.885 88.8322L616.157 81.2041C613.292 78.3764 608.637 78.37 605.781 81.1897C602.916 84.0173 602.916 88.6181 605.781 91.4457L608.552 94.1807C606.388 93.4394 604.09 93.0523 601.732 93.0523C596.192 93.0523 590.983 95.1819 587.065 99.049C578.978 107.032 578.978 120.021 587.065 128.003C590.983 131.87 596.192 134 601.732 134C607.272 134 612.481 131.87 616.399 128.003C620.316 124.136 622.474 118.995 622.474 113.526C622.474 108.057 620.316 102.916 616.399 99.0489C616.307 98.958 616.213 98.8689 616.12 98.78L607.241 90.0043C605.181 87.9714 605.181 84.6637 607.241 82.6307C609.292 80.6058 612.637 80.6122 614.696 82.6451L622.424 90.2732C623.814 91.6449 625.66 92.4158 627.623 92.444C629.606 92.471 631.465 91.7349 632.851 90.3668C635.716 87.5394 635.716 82.9385 632.852 80.1109ZM611.921 98.07C609.425 98.2791 606.995 98.8026 604.679 99.6241C604.63 99.5996 604.58 99.5777 604.526 99.5606C600.02 98.1289 595.3 97.8253 590.697 98.6489C593.879 96.3389 597.708 95.0905 601.732 95.0905C605.406 95.0907 608.916 96.1316 611.921 98.07ZM590.832 110.133C588.282 110.055 585.738 110.313 583.252 110.906C583.409 109.819 583.665 108.743 584.018 107.693C584.036 107.688 584.055 107.683 584.073 107.677C587.699 106.425 590.894 105.947 594.203 106.176C594.177 106.202 594.15 106.227 594.124 106.252C592.9 107.461 591.801 108.76 590.832 110.133ZM596.259 104.344C596.256 104.343 596.254 104.342 596.251 104.342C592.478 103.808 588.963 104.077 585.058 105.221C585.74 103.883 586.598 102.611 587.631 101.439C592.034 100.175 597.09 99.9407 601.635 100.907C599.732 101.843 597.929 102.992 596.259 104.344ZM583.07 113.056C585.186 112.495 587.351 112.195 589.528 112.161C587.543 115.56 586.301 119.334 585.885 123.287C583.918 120.175 582.979 116.605 583.07 113.056ZM587.799 125.802C587.917 118.96 590.67 112.545 595.584 107.694C600.536 102.805 607.428 100.084 614.428 100.007C614.601 100.165 614.771 100.325 614.939 100.49C615.65 101.192 616.296 101.942 616.875 102.73C602.977 103.797 591.857 114.628 590.589 128.325C589.866 127.792 589.176 127.204 588.526 126.562C588.274 126.314 588.033 126.06 587.799 125.802ZM619.464 107.707C613.215 108.513 607.696 111.035 603.448 115.039C599.021 119.213 596.319 124.7 595.601 130.949C594.551 130.59 593.537 130.139 592.567 129.599C593.257 116.015 604.362 105.199 618.138 104.7C618.671 105.662 619.115 106.668 619.464 107.707ZM618.937 120.723C617.365 117.318 615.115 114.246 612.342 111.709C613.721 111.124 615.174 110.647 616.691 110.285C618.121 112.082 619.304 114.06 620.218 116.174C619.99 117.749 619.558 119.275 618.937 120.723ZM620.339 111.929C619.904 111.213 619.438 110.516 618.94 109.841C619.292 109.786 619.648 109.737 620.006 109.694C620.162 110.428 620.274 111.173 620.339 111.929ZM609.649 120.772C611.446 122.726 612.939 124.944 614.073 127.363C611.083 129.968 607.383 131.538 603.423 131.886C604.002 127.267 606.276 123.199 609.649 120.772ZM601.338 131.957C600.072 131.931 598.826 131.783 597.616 131.515C598.224 125.605 600.807 120.466 604.803 116.64C606.009 117.44 607.14 118.332 608.187 119.305C604.414 122.138 601.907 126.763 601.338 131.957ZM615.627 125.846C613.5 121.603 610.333 117.965 606.394 115.246C607.606 114.274 608.922 113.41 610.33 112.665C613.604 115.477 616.151 119.074 617.704 123.094C617.105 124.065 616.411 124.986 615.627 125.846Z" fill="#78C0DE"/>
<path d="M1411.97 186.907L1406.41 181.289C1406.03 180.904 1405.41 180.904 1405.03 181.289C1404.65 181.673 1404.65 182.297 1405.03 182.682L1410.59 188.3C1412.54 190.265 1412.54 193.463 1410.59 195.428C1409.66 196.371 1408.4 196.878 1407.06 196.859C1405.72 196.84 1404.45 196.299 1403.5 195.338L1396.2 187.964C1393.5 185.23 1389.1 185.224 1386.4 187.95C1383.7 190.683 1383.7 195.131 1386.4 197.864L1389.02 200.508C1386.98 199.791 1384.81 199.417 1382.58 199.417C1377.35 199.417 1372.43 201.476 1368.73 205.214C1361.09 212.931 1361.09 225.487 1368.73 233.203C1372.43 236.941 1377.35 239 1382.58 239C1387.81 239 1392.73 236.941 1396.43 233.203C1400.13 229.465 1402.17 224.495 1402.17 219.209C1402.17 213.922 1400.13 208.952 1396.43 205.214C1396.35 205.126 1396.26 205.04 1396.17 204.954L1387.78 196.471C1385.84 194.506 1385.84 191.308 1387.78 189.343C1389.72 187.386 1392.88 187.392 1394.82 189.357L1402.12 196.731C1403.44 198.057 1405.18 198.802 1407.03 198.829C1408.91 198.855 1410.66 198.144 1411.97 196.821C1414.68 194.088 1414.68 189.641 1411.97 186.907ZM1392.2 204.268C1389.85 204.47 1387.55 204.976 1385.36 205.77C1385.32 205.746 1385.27 205.725 1385.22 205.709C1380.96 204.325 1376.51 204.031 1372.16 204.827C1375.16 202.594 1378.78 201.388 1382.58 201.388C1386.05 201.388 1389.37 202.394 1392.2 204.268ZM1372.29 215.929C1369.88 215.853 1367.48 216.103 1365.13 216.675C1365.28 215.625 1365.52 214.585 1365.85 213.57C1365.87 213.565 1365.88 213.56 1365.9 213.554C1369.33 212.344 1372.34 211.882 1375.47 212.104C1375.44 212.128 1375.42 212.152 1375.39 212.177C1374.24 213.345 1373.2 214.601 1372.29 215.929ZM1377.41 210.332C1377.41 210.332 1377.41 210.331 1377.4 210.331C1373.84 209.814 1370.52 210.074 1366.83 211.18C1367.48 209.887 1368.29 208.658 1369.26 207.524C1373.42 206.302 1378.2 206.076 1382.49 207.01C1380.69 207.915 1378.99 209.026 1377.41 210.332ZM1364.96 218.754C1366.95 218.211 1369 217.922 1371.05 217.889C1369.18 221.174 1368.01 224.823 1367.61 228.644C1365.76 225.636 1364.87 222.185 1364.96 218.754ZM1369.42 231.075C1369.53 224.461 1372.13 218.26 1376.77 213.57C1381.45 208.845 1387.96 206.214 1394.57 206.14C1394.73 206.293 1394.9 206.448 1395.05 206.607C1395.72 207.286 1396.33 208.011 1396.88 208.773C1383.76 209.804 1373.25 220.274 1372.06 233.514C1371.37 232.999 1370.72 232.43 1370.11 231.81C1369.87 231.57 1369.64 231.325 1369.42 231.075ZM1399.33 213.584C1393.43 214.362 1388.21 216.8 1384.2 220.671C1380.02 224.706 1377.47 230.01 1376.79 236.051C1375.8 235.703 1374.84 235.268 1373.92 234.745C1374.58 221.615 1385.06 211.159 1398.07 210.677C1398.58 211.607 1399 212.579 1399.33 213.584ZM1398.83 226.165C1397.34 222.874 1395.22 219.904 1392.6 217.452C1393.9 216.887 1395.28 216.425 1396.71 216.075C1398.06 217.812 1399.18 219.725 1400.04 221.768C1399.82 223.291 1399.42 224.766 1398.83 226.165ZM1400.15 217.665C1399.74 216.972 1399.3 216.299 1398.83 215.646C1399.16 215.593 1399.5 215.546 1399.84 215.504C1399.99 216.213 1400.09 216.934 1400.15 217.665ZM1390.06 226.213C1391.75 228.101 1393.16 230.246 1394.24 232.584C1391.41 235.103 1387.92 236.62 1384.18 236.957C1384.72 232.492 1386.87 228.559 1390.06 226.213ZM1382.21 237.025C1381.01 237 1379.84 236.856 1378.69 236.598C1379.27 230.885 1381.71 225.917 1385.48 222.219C1386.62 222.992 1387.69 223.854 1388.68 224.795C1385.11 227.534 1382.75 232.004 1382.21 237.025ZM1395.7 231.118C1393.69 227.017 1390.7 223.5 1386.98 220.871C1388.13 219.932 1389.37 219.096 1390.7 218.376C1393.79 221.094 1396.2 224.572 1397.66 228.457C1397.1 229.396 1396.44 230.286 1395.7 231.118Z" fill="#F3F3F3"/>
<path d="M924.971 550.907L919.41 545.289C919.029 544.904 918.411 544.904 918.03 545.289C917.65 545.673 917.65 546.297 918.03 546.682L923.592 552.3C925.537 554.265 925.537 557.463 923.592 559.428C922.659 560.371 921.403 560.878 920.061 560.859C918.718 560.84 917.454 560.299 916.502 559.338L909.203 551.964C906.498 549.23 902.102 549.224 899.404 551.95C896.699 554.683 896.699 559.131 899.404 561.864L902.021 564.508C899.977 563.791 897.807 563.417 895.58 563.417C890.348 563.417 885.428 565.476 881.728 569.214C874.091 576.931 874.091 589.487 881.728 597.203C885.428 600.941 890.348 603 895.58 603C900.813 603 905.732 600.941 909.432 597.203C913.132 593.465 915.17 588.495 915.17 583.209C915.17 577.922 913.132 572.952 909.432 569.214C909.345 569.126 909.257 569.04 909.169 568.954L900.783 560.471C898.838 558.506 898.838 555.308 900.783 553.343C902.721 551.386 905.879 551.392 907.824 553.357L915.123 560.731C916.435 562.057 918.179 562.802 920.033 562.829C921.905 562.855 923.662 562.144 924.971 560.821C927.676 558.088 927.676 553.641 924.971 550.907ZM905.203 568.268C902.846 568.47 900.551 568.976 898.363 569.77C898.317 569.746 898.27 569.725 898.219 569.709C893.963 568.325 889.506 568.031 885.158 568.827C888.163 566.594 891.78 565.388 895.58 565.388C899.05 565.388 902.366 566.394 905.203 568.268ZM885.286 579.929C882.878 579.853 880.475 580.103 878.127 580.675C878.275 579.625 878.517 578.585 878.85 577.57C878.868 577.565 878.885 577.56 878.902 577.554C882.327 576.344 885.344 575.882 888.469 576.104C888.445 576.128 888.419 576.152 888.395 576.177C887.239 577.345 886.201 578.601 885.286 579.929ZM890.411 574.332C890.408 574.332 890.406 574.331 890.404 574.331C886.84 573.814 883.521 574.074 879.832 575.18C880.477 573.887 881.287 572.658 882.263 571.524C886.421 570.302 891.196 570.076 895.489 571.01C893.691 571.915 891.988 573.026 890.411 574.332ZM877.955 582.754C879.954 582.211 881.999 581.922 884.054 581.889C882.179 585.174 881.006 588.823 880.614 592.644C878.755 589.636 877.87 586.185 877.955 582.754ZM882.421 595.075C882.532 588.461 885.132 582.26 889.774 577.57C894.451 572.845 900.96 570.214 907.571 570.14C907.734 570.293 907.895 570.448 908.053 570.607C908.725 571.286 909.335 572.011 909.882 572.773C896.756 573.804 886.253 584.274 885.056 597.514C884.373 596.999 883.721 596.43 883.108 595.81C882.87 595.57 882.642 595.325 882.421 595.075ZM912.327 577.584C906.426 578.362 901.213 580.8 897.201 584.671C893.019 588.706 890.468 594.01 889.79 600.051C888.799 599.703 887.84 599.268 886.925 598.745C887.576 585.615 898.064 575.159 911.075 574.677C911.578 575.607 911.997 576.579 912.327 577.584ZM911.829 590.165C910.345 586.874 908.22 583.904 905.601 581.452C906.903 580.887 908.275 580.425 909.708 580.075C911.058 581.812 912.176 583.725 913.039 585.768C912.824 587.291 912.416 588.766 911.829 590.165ZM913.153 581.665C912.743 580.972 912.302 580.299 911.832 579.646C912.165 579.593 912.501 579.546 912.839 579.504C912.987 580.213 913.092 580.934 913.153 581.665ZM903.058 590.213C904.755 592.101 906.165 594.246 907.236 596.584C904.412 599.103 900.917 600.62 897.178 600.957C897.724 596.492 899.872 592.559 903.058 590.213ZM895.208 601.025C894.012 601 892.836 600.856 891.693 600.598C892.267 594.885 894.706 589.917 898.48 586.219C899.619 586.992 900.687 587.854 901.677 588.795C898.113 591.534 895.746 596.004 895.208 601.025ZM908.703 595.118C906.695 591.017 903.703 587.5 899.983 584.871C901.128 583.932 902.371 583.096 903.701 582.376C906.793 585.094 909.198 588.572 910.665 592.457C910.099 593.396 909.444 594.286 908.703 595.118Z" fill="#78C0DE" fill-opacity="0.09"/>
<path d="M1372.97 886.907L1367.41 881.289C1367.03 880.904 1366.41 880.904 1366.03 881.289C1365.65 881.673 1365.65 882.297 1366.03 882.682L1371.59 888.3C1373.54 890.265 1373.54 893.463 1371.59 895.428C1370.66 896.371 1369.4 896.878 1368.06 896.859C1366.72 896.84 1365.45 896.299 1364.5 895.338L1357.2 887.964C1354.5 885.23 1350.1 885.224 1347.4 887.95C1344.7 890.683 1344.7 895.131 1347.4 897.864L1350.02 900.508C1347.98 899.791 1345.81 899.417 1343.58 899.417C1338.35 899.417 1333.43 901.476 1329.73 905.214C1322.09 912.931 1322.09 925.487 1329.73 933.203C1333.43 936.941 1338.35 939 1343.58 939C1348.81 939 1353.73 936.941 1357.43 933.203C1361.13 929.465 1363.17 924.495 1363.17 919.209C1363.17 913.922 1361.13 908.952 1357.43 905.214C1357.35 905.126 1357.26 905.04 1357.17 904.954L1348.78 896.471C1346.84 894.506 1346.84 891.308 1348.78 889.343C1350.72 887.386 1353.88 887.392 1355.82 889.357L1363.12 896.731C1364.44 898.057 1366.18 898.802 1368.03 898.829C1369.91 898.855 1371.66 898.144 1372.97 896.821C1375.68 894.088 1375.68 889.641 1372.97 886.907ZM1353.2 904.268C1350.85 904.47 1348.55 904.976 1346.36 905.77C1346.32 905.746 1346.27 905.725 1346.22 905.709C1341.96 904.325 1337.51 904.031 1333.16 904.827C1336.16 902.594 1339.78 901.388 1343.58 901.388C1347.05 901.388 1350.37 902.394 1353.2 904.268ZM1333.29 915.929C1330.88 915.853 1328.48 916.103 1326.13 916.675C1326.28 915.625 1326.52 914.585 1326.85 913.57C1326.87 913.565 1326.88 913.56 1326.9 913.554C1330.33 912.344 1333.34 911.882 1336.47 912.104C1336.44 912.128 1336.42 912.152 1336.39 912.177C1335.24 913.345 1334.2 914.601 1333.29 915.929ZM1338.41 910.332C1338.41 910.332 1338.41 910.331 1338.4 910.331C1334.84 909.814 1331.52 910.074 1327.83 911.18C1328.48 909.887 1329.29 908.658 1330.26 907.524C1334.42 906.302 1339.2 906.076 1343.49 907.01C1341.69 907.915 1339.99 909.026 1338.41 910.332ZM1325.96 918.754C1327.95 918.211 1330 917.922 1332.05 917.889C1330.18 921.174 1329.01 924.823 1328.61 928.644C1326.76 925.636 1325.87 922.185 1325.96 918.754ZM1330.42 931.075C1330.53 924.461 1333.13 918.26 1337.77 913.57C1342.45 908.845 1348.96 906.214 1355.57 906.14C1355.73 906.293 1355.9 906.448 1356.05 906.607C1356.72 907.286 1357.33 908.011 1357.88 908.773C1344.76 909.804 1334.25 920.274 1333.06 933.514C1332.37 932.999 1331.72 932.43 1331.11 931.81C1330.87 931.57 1330.64 931.325 1330.42 931.075ZM1360.33 913.584C1354.43 914.362 1349.21 916.8 1345.2 920.671C1341.02 924.706 1338.47 930.01 1337.79 936.051C1336.8 935.703 1335.84 935.268 1334.92 934.745C1335.58 921.615 1346.06 911.159 1359.07 910.677C1359.58 911.607 1360 912.579 1360.33 913.584ZM1359.83 926.165C1358.34 922.874 1356.22 919.904 1353.6 917.452C1354.9 916.887 1356.28 916.425 1357.71 916.075C1359.06 917.812 1360.18 919.725 1361.04 921.768C1360.82 923.291 1360.42 924.766 1359.83 926.165ZM1361.15 917.665C1360.74 916.972 1360.3 916.299 1359.83 915.646C1360.16 915.593 1360.5 915.546 1360.84 915.504C1360.99 916.213 1361.09 916.934 1361.15 917.665ZM1351.06 926.213C1352.75 928.101 1354.16 930.246 1355.24 932.584C1352.41 935.103 1348.92 936.62 1345.18 936.957C1345.72 932.492 1347.87 928.559 1351.06 926.213ZM1343.21 937.025C1342.01 937 1340.84 936.856 1339.69 936.598C1340.27 930.885 1342.71 925.917 1346.48 922.219C1347.62 922.992 1348.69 923.854 1349.68 924.795C1346.11 927.534 1343.75 932.004 1343.21 937.025ZM1356.7 931.118C1354.69 927.017 1351.7 923.5 1347.98 920.871C1349.13 919.932 1350.37 919.096 1351.7 918.376C1354.79 921.094 1357.2 924.572 1358.66 928.457C1358.1 929.396 1357.44 930.286 1356.7 931.118Z" fill="#F3F3F3"/>
<path d="M94.9709 921.907L89.4095 916.289C89.0288 915.904 88.4113 915.904 88.0305 916.289C87.6496 916.673 87.6497 917.297 88.0305 917.682L93.5919 923.3C95.537 925.265 95.537 928.463 93.5919 930.428C92.6589 931.371 91.4028 931.878 90.0613 931.859C88.7178 931.84 87.4537 931.299 86.5021 930.338L79.2035 922.964C76.498 920.23 72.1019 920.224 69.4041 922.95C66.6986 925.683 66.6986 930.131 69.4041 932.864L72.021 935.508C69.9773 934.791 67.8074 934.417 65.5803 934.417C60.3478 934.417 55.4284 936.476 51.7285 940.214C44.0905 947.931 44.0905 960.487 51.7285 968.203C55.4284 971.941 60.3477 974 65.5803 974C70.8128 974 75.7323 971.941 79.4322 968.203C83.1322 964.465 85.1698 959.495 85.1698 954.209C85.1698 948.922 83.1322 943.952 79.4322 940.214C79.3453 940.126 79.2569 940.04 79.1686 939.954L70.783 931.471C68.838 929.506 68.838 926.308 70.783 924.343C72.7206 922.386 75.8792 922.392 77.8244 924.357L85.123 931.731C86.4354 933.057 88.179 933.802 90.0328 933.829C91.9054 933.855 93.6619 933.144 94.9708 931.821C97.6764 929.088 97.6764 924.641 94.9709 921.907ZM75.2034 939.268C72.846 939.47 70.5506 939.976 68.3632 940.77C68.3173 940.746 68.2697 940.725 68.2191 940.709C63.9631 939.325 59.5056 939.031 55.1581 939.827C58.1635 937.594 61.78 936.388 65.5803 936.388C69.0498 936.388 72.3656 937.394 75.2034 939.268ZM55.2862 950.929C52.8778 950.853 50.4751 951.103 48.1273 951.675C48.2754 950.625 48.517 949.585 48.8504 948.57C48.8676 948.565 48.8849 948.56 48.902 948.554C52.3268 947.344 55.344 946.882 58.4693 947.104C58.4446 947.128 58.4194 947.152 58.395 947.177C57.2388 948.345 56.2014 949.601 55.2862 950.929ZM60.4108 945.332C60.4084 945.332 60.4061 945.331 60.4038 945.331C56.8403 944.814 53.5205 945.074 49.8323 946.18C50.4769 944.887 51.2868 943.658 52.2626 942.524C56.4209 941.302 61.1962 941.076 65.4887 942.01C63.6909 942.915 61.9883 944.026 60.4108 945.332ZM47.9554 953.754C49.9537 953.211 51.9985 952.922 54.0544 952.889C52.1793 956.174 51.0062 959.823 50.6138 963.644C48.7555 960.636 47.8695 957.185 47.9554 953.754ZM52.4211 966.075C52.5323 959.461 55.1323 953.26 59.774 948.57C64.451 943.845 70.9596 941.214 77.5712 941.14C77.734 941.293 77.8952 941.448 78.0532 941.607C78.725 942.286 79.3347 943.011 79.882 943.773C66.7558 944.804 56.2535 955.274 55.0565 968.514C54.373 967.999 53.7215 967.43 53.1075 966.81C52.8703 966.57 52.6421 966.325 52.4211 966.075ZM82.3271 948.584C76.4257 949.362 71.2129 951.8 67.2006 955.671C63.0194 959.706 60.4678 965.01 59.7897 971.051C58.7985 970.703 57.8402 970.268 56.9248 969.745C57.5762 956.615 68.0644 946.159 81.0748 945.677C81.578 946.607 81.9975 947.579 82.3271 948.584ZM81.8292 961.165C80.3448 957.874 78.2198 954.904 75.6007 952.452C76.9032 951.887 78.2755 951.425 79.7085 951.075C81.0583 952.812 82.1764 954.725 83.0392 956.768C82.8239 958.291 82.4163 959.766 81.8292 961.165ZM83.1534 952.665C82.7427 951.972 82.3022 951.299 81.8323 950.646C82.165 950.593 82.5007 950.546 82.8389 950.504C82.9866 951.213 83.0918 951.934 83.1534 952.665ZM73.0576 961.213C74.7548 963.101 76.1649 965.246 77.2359 967.584C74.4122 970.103 70.9171 971.62 67.1777 971.957C67.7243 967.492 69.8717 963.559 73.0576 961.213ZM65.2082 972.025C64.0122 972 62.8359 971.856 61.6928 971.598C62.267 965.885 64.7063 960.917 68.4802 957.219C69.6193 957.992 70.6874 958.854 71.677 959.795C68.1129 962.534 65.7456 967.004 65.2082 972.025ZM78.7028 966.118C76.6948 962.017 73.7032 958.5 69.9828 955.871C71.1276 954.932 72.3706 954.096 73.7009 953.376C76.7927 956.094 79.1983 959.572 80.6649 963.457C80.0989 964.396 79.4436 965.286 78.7028 966.118Z" fill="#F3F3F3"/>
<path opacity="0.07" d="M1086.97 1288.91L1081.41 1283.29C1081.03 1282.9 1080.41 1282.9 1080.03 1283.29C1079.65 1283.67 1079.65 1284.3 1080.03 1284.68L1085.59 1290.3C1087.54 1292.27 1087.54 1295.46 1085.59 1297.43C1084.66 1298.37 1083.4 1298.88 1082.06 1298.86C1080.72 1298.84 1079.45 1298.3 1078.5 1297.34L1071.2 1289.96C1068.5 1287.23 1064.1 1287.22 1061.4 1289.95C1058.7 1292.68 1058.7 1297.13 1061.4 1299.86L1064.02 1302.51C1061.98 1301.79 1059.81 1301.42 1057.58 1301.42C1052.35 1301.42 1047.43 1303.48 1043.73 1307.21C1036.09 1314.93 1036.09 1327.49 1043.73 1335.2C1047.43 1338.94 1052.35 1341 1057.58 1341C1062.81 1341 1067.73 1338.94 1071.43 1335.2C1075.13 1331.47 1077.17 1326.5 1077.17 1321.21C1077.17 1315.92 1075.13 1310.95 1071.43 1307.21C1071.35 1307.13 1071.26 1307.04 1071.17 1306.95L1062.78 1298.47C1060.84 1296.51 1060.84 1293.31 1062.78 1291.34C1064.72 1289.39 1067.88 1289.39 1069.82 1291.36L1077.12 1298.73C1078.44 1300.06 1080.18 1300.8 1082.03 1300.83C1083.91 1300.86 1085.66 1300.14 1086.97 1298.82C1089.68 1296.09 1089.68 1291.64 1086.97 1288.91ZM1067.2 1306.27C1064.85 1306.47 1062.55 1306.98 1060.36 1307.77C1060.32 1307.75 1060.27 1307.73 1060.22 1307.71C1055.96 1306.32 1051.51 1306.03 1047.16 1306.83C1050.16 1304.59 1053.78 1303.39 1057.58 1303.39C1061.05 1303.39 1064.37 1304.39 1067.2 1306.27ZM1047.29 1317.93C1044.88 1317.85 1042.48 1318.1 1040.13 1318.68C1040.28 1317.62 1040.52 1316.59 1040.85 1315.57C1040.87 1315.56 1040.88 1315.56 1040.9 1315.55C1044.33 1314.34 1047.34 1313.88 1050.47 1314.1C1050.44 1314.13 1050.42 1314.15 1050.39 1314.18C1049.24 1315.35 1048.2 1316.6 1047.29 1317.93ZM1052.41 1312.33C1052.41 1312.33 1052.41 1312.33 1052.4 1312.33C1048.84 1311.81 1045.52 1312.07 1041.83 1313.18C1042.48 1311.89 1043.29 1310.66 1044.26 1309.52C1048.42 1308.3 1053.2 1308.08 1057.49 1309.01C1055.69 1309.91 1053.99 1311.03 1052.41 1312.33ZM1039.96 1320.75C1041.95 1320.21 1044 1319.92 1046.05 1319.89C1044.18 1323.17 1043.01 1326.82 1042.61 1330.64C1040.76 1327.64 1039.87 1324.18 1039.96 1320.75ZM1044.42 1333.08C1044.53 1326.46 1047.13 1320.26 1051.77 1315.57C1056.45 1310.85 1062.96 1308.21 1069.57 1308.14C1069.73 1308.29 1069.9 1308.45 1070.05 1308.61C1070.72 1309.29 1071.33 1310.01 1071.88 1310.77C1058.76 1311.8 1048.25 1322.27 1047.06 1335.51C1046.37 1335 1045.72 1334.43 1045.11 1333.81C1044.87 1333.57 1044.64 1333.33 1044.42 1333.08ZM1074.33 1315.58C1068.43 1316.36 1063.21 1318.8 1059.2 1322.67C1055.02 1326.71 1052.47 1332.01 1051.79 1338.05C1050.8 1337.7 1049.84 1337.27 1048.92 1336.75C1049.58 1323.61 1060.06 1313.16 1073.07 1312.68C1073.58 1313.61 1074 1314.58 1074.33 1315.58ZM1073.83 1328.17C1072.34 1324.87 1070.22 1321.9 1067.6 1319.45C1068.9 1318.89 1070.28 1318.42 1071.71 1318.08C1073.06 1319.81 1074.18 1321.72 1075.04 1323.77C1074.82 1325.29 1074.42 1326.77 1073.83 1328.17ZM1075.15 1319.66C1074.74 1318.97 1074.3 1318.3 1073.83 1317.65C1074.16 1317.59 1074.5 1317.55 1074.84 1317.5C1074.99 1318.21 1075.09 1318.93 1075.15 1319.66ZM1065.06 1328.21C1066.75 1330.1 1068.16 1332.25 1069.24 1334.58C1066.41 1337.1 1062.92 1338.62 1059.18 1338.96C1059.72 1334.49 1061.87 1330.56 1065.06 1328.21ZM1057.21 1339.03C1056.01 1339 1054.84 1338.86 1053.69 1338.6C1054.27 1332.89 1056.71 1327.92 1060.48 1324.22C1061.62 1324.99 1062.69 1325.85 1063.68 1326.79C1060.11 1329.53 1057.75 1334 1057.21 1339.03ZM1070.7 1333.12C1068.69 1329.02 1065.7 1325.5 1061.98 1322.87C1063.13 1321.93 1064.37 1321.1 1065.7 1320.38C1068.79 1323.09 1071.2 1326.57 1072.66 1330.46C1072.1 1331.4 1071.44 1332.29 1070.7 1333.12Z" fill="#FFBD54"/>
<path d="M92.6526 6.72203L86.2189 0.328305C85.7784 -0.109435 85.0641 -0.109435 84.6235 0.328305C84.1829 0.766045 84.183 1.47587 84.6235 1.91361L91.0573 8.3072C93.3075 10.5434 93.3075 14.1819 91.0573 16.4183C89.9779 17.4909 88.5248 18.0679 86.9728 18.0468C85.4186 18.0243 83.9562 17.4094 82.8553 16.3154L74.4118 7.92446C71.282 4.81399 66.1964 4.807 63.0753 7.90863C59.9455 11.019 59.9455 16.08 63.0753 19.1903L66.1027 22.1988C63.7385 21.3834 61.2282 20.9575 58.6518 20.9575C52.5985 20.9575 46.9074 23.3001 42.627 27.5539C33.791 36.335 33.791 50.6227 42.627 59.4037C46.9074 63.6574 52.5983 66 58.6518 66C64.705 66 70.3961 63.6574 74.6765 59.4037C78.9568 55.15 81.3141 49.4945 81.3141 43.4787C81.3141 37.463 78.9568 31.8075 74.6765 27.5538C74.5759 27.4538 74.4737 27.3558 74.3715 27.258L64.6705 17.6047C62.4205 15.3685 62.4205 11.7301 64.6705 9.49381C66.9121 7.26633 70.5662 7.27346 72.8165 9.50964L81.26 17.9006C82.7782 19.4094 84.7954 20.2574 86.9399 20.2884C89.1062 20.3181 91.1382 19.5084 92.6525 18.0034C95.7825 14.8934 95.7825 9.83237 92.6526 6.72203ZM69.7843 26.477C67.0572 26.7071 64.4017 27.2829 61.8712 28.1865C61.8181 28.1596 61.763 28.1354 61.7045 28.1167C56.7809 26.5418 51.6241 26.2079 46.5947 27.1138C50.0714 24.5728 54.2553 23.1996 58.6518 23.1996C62.6655 23.1997 66.5013 24.3448 69.7843 26.477ZM46.7428 39.7463C43.9567 39.66 41.1771 39.9446 38.461 40.5962C38.6323 39.4006 38.9118 38.2178 39.2975 37.0625C39.3174 37.0567 39.3374 37.0514 39.3572 37.0445C43.3193 35.6676 46.8097 35.1416 50.4253 35.3939C50.3967 35.422 50.3675 35.4492 50.3393 35.4774C49.0018 36.8066 47.8016 38.2356 46.7428 39.7463ZM52.6713 33.3779C52.6686 33.3775 52.6659 33.3767 52.6632 33.3763C48.5407 32.7883 44.7002 33.0847 40.4334 34.3428C41.1791 32.8716 42.1161 31.4725 43.245 30.1826C48.0555 28.7925 53.5799 28.5348 58.5457 29.5981C56.4659 30.6271 54.4963 31.8911 52.6713 33.3779ZM38.2622 42.9615C40.5739 42.3441 42.9395 42.0144 45.3178 41.9769C43.1486 45.7157 41.7915 49.8676 41.3376 54.2153C39.1877 50.7921 38.1628 46.8651 38.2622 42.9615ZM43.4284 56.9823C43.557 49.4561 46.5648 42.3992 51.9346 37.0629C57.3453 31.686 64.8748 28.6923 72.5236 28.6074C72.7119 28.7813 72.8984 28.9577 73.0811 29.1394C73.8583 29.9117 74.5637 30.7361 75.1969 31.6034C60.0116 32.7771 47.8619 44.6907 46.4771 59.7578C45.6864 59.1713 44.9327 58.5243 44.2224 57.8184C43.948 57.5456 43.684 57.2664 43.4284 56.9823ZM78.0254 37.0779C71.1984 37.9638 65.1678 40.738 60.5262 45.1432C55.6892 49.7338 52.7373 55.7696 51.9528 62.6437C50.8062 62.2488 49.6975 61.753 48.6385 61.1586C49.3921 46.2166 61.5254 34.319 76.5767 33.7701C77.1589 34.8284 77.6441 35.9344 78.0254 37.0779ZM77.4494 51.3951C75.7322 47.6501 73.2739 44.2701 70.2439 41.4801C71.7508 40.8369 73.3383 40.3112 74.9961 39.913C76.5576 41.89 77.8512 44.0663 78.8493 46.3911C78.6002 48.1239 78.1287 49.8028 77.4494 51.3951ZM78.9814 41.7218C78.5062 40.9341 77.9966 40.1677 77.453 39.4253C77.8379 39.3645 78.2263 39.3112 78.6176 39.2637C78.7884 40.0703 78.9101 40.8908 78.9814 41.7218ZM67.3019 51.4493C69.2654 53.5982 70.8966 56.0389 72.1356 58.6993C68.869 61.5651 64.8257 63.2915 60.4997 63.6751C61.1321 58.5939 63.6162 54.1194 67.3019 51.4493ZM58.2212 63.7527C56.8377 63.7245 55.4768 63.5608 54.1544 63.2667C54.8187 56.766 57.6406 51.113 62.0065 46.904C63.3243 47.7843 64.56 48.7651 65.7048 49.8354C61.5816 52.9519 58.843 58.0396 58.2212 63.7527ZM73.8327 57.0304C71.5096 52.3638 68.0488 48.3615 63.7448 45.3703C65.0692 44.3015 66.5072 43.3509 68.0462 42.5315C71.623 45.6244 74.4059 49.5815 76.1025 54.0034C75.4477 55.0713 74.6896 56.0846 73.8327 57.0304Z" fill="#F3F3F3"/>
<path d="M978.929 82.0234C975.291 80.1424 971.001 80.2415 967.454 82.2892C963.908 84.3369 961.677 88.0023 961.487 92.0935L961.029 101.952C960.953 103.588 961.396 105.171 962.31 106.53C963.224 107.889 964.523 108.896 966.068 109.443C967.612 109.988 969.256 110.021 970.821 109.539C972.387 109.057 973.726 108.103 974.696 106.782L974.76 106.694C977.216 103.399 980.958 101.255 985.045 100.807C986.1 100.691 987.099 100.364 987.998 99.8447C988.486 99.5625 988.946 99.2231 989.369 98.8308C990.57 97.7166 991.363 96.2764 991.663 94.6657C991.962 93.0557 991.74 91.4266 991.02 89.955C990.3 88.4834 989.151 87.3082 987.696 86.5557L978.929 82.0234Z" fill="#F3F3F3"/>
<path d="M958.112 94.0299C959.18 92.7105 959.584 91.0029 959.249 89.2214C958.931 87.526 957.972 85.9585 956.548 84.8074C955.124 83.6574 953.39 83.0486 951.666 83.0926C949.854 83.1392 948.269 83.8917 947.204 85.2107C945.06 87.8616 945.762 91.9977 948.77 94.4323C951.167 96.368 954.314 96.647 956.578 95.3401C957.156 95.0063 957.676 94.5691 958.112 94.0299Z" fill="#F3F3F3"/>
<path d="M963.807 83.225C967.252 81.2358 968.212 76.4238 965.945 72.4983C963.678 68.5718 959.031 66.9959 955.585 68.9852C952.14 70.9742 951.182 75.7867 953.449 79.7132C955.715 83.6387 960.362 85.2141 963.807 83.225Z" fill="#F3F3F3"/>
<path d="M975.608 78.7436L975.608 78.7434C976.24 78.6134 976.829 78.3852 977.367 78.0744C979.88 76.6237 981.273 73.381 980.585 70.0309C980.189 68.1023 979.165 66.412 977.704 65.2717C976.174 64.0777 974.353 63.6213 972.576 63.9866C970.799 64.352 969.305 65.4898 968.37 67.1902C967.477 68.8145 967.204 70.7712 967.601 72.6994C968.437 76.7674 972.029 79.4788 975.608 78.7436Z" fill="#F3F3F3"/>
<path d="M988.287 70.3154L988.286 70.315C984.896 69.9316 981.782 72.744 981.343 76.5855C980.907 80.4273 983.308 83.8673 986.695 84.2541C987.93 84.3955 989.129 84.1116 990.176 83.5075C992 82.4546 993.359 80.4283 993.64 77.9844C994.075 74.1428 991.674 70.7026 988.287 70.3154Z" fill="#F3F3F3"/>
<g opacity="0.5">
<path d="M571.684 246.149C568.159 244.327 564.003 244.423 560.567 246.407C557.131 248.391 554.97 251.942 554.786 255.905L554.342 265.457C554.268 267.041 554.698 268.575 555.583 269.892C556.468 271.208 557.727 272.184 559.223 272.713C560.719 273.242 562.312 273.274 563.829 272.807C565.345 272.34 566.643 271.416 567.582 270.136L567.645 270.05C570.024 266.858 573.649 264.782 577.609 264.347C578.631 264.235 579.598 263.918 580.469 263.415C580.943 263.141 581.388 262.813 581.798 262.433C582.961 261.353 583.729 259.958 584.02 258.397C584.31 256.838 584.095 255.259 583.397 253.834C582.7 252.408 581.587 251.269 580.177 250.54L571.684 246.149Z" fill="#FFBD54" fill-opacity="0.09"/>
<path d="M551.516 257.781C552.55 256.503 552.942 254.849 552.618 253.123C552.31 251.48 551.38 249.962 550.001 248.847C548.621 247.732 546.942 247.143 545.271 247.185C543.516 247.23 541.98 247.959 540.948 249.237C538.871 251.806 539.551 255.813 542.465 258.171C544.788 260.047 547.836 260.317 550.029 259.051C550.589 258.727 551.094 258.304 551.516 257.781Z" fill="#FFBD54" fill-opacity="0.09"/>
<path d="M557.033 247.314C560.371 245.386 561.3 240.724 559.105 236.921C556.908 233.117 552.406 231.591 549.068 233.518C545.73 235.445 544.801 240.107 546.998 243.911C549.193 247.714 553.695 249.241 557.033 247.314Z" fill="#FFBD54" fill-opacity="0.09"/>
<path d="M568.466 242.972L568.467 242.972C569.078 242.846 569.649 242.625 570.171 242.324C572.605 240.918 573.955 237.777 573.288 234.531C572.904 232.662 571.913 231.025 570.497 229.92C569.015 228.763 567.251 228.321 565.529 228.675C563.807 229.029 562.36 230.131 561.455 231.779C560.589 233.352 560.325 235.248 560.709 237.116C561.519 241.057 564.999 243.684 568.466 242.972Z" fill="#FFBD54" fill-opacity="0.09"/>
<path d="M580.75 234.807L580.749 234.806C577.465 234.435 574.448 237.159 574.023 240.881C573.6 244.603 575.927 247.936 579.208 248.311C580.404 248.448 581.566 248.173 582.58 247.587C584.347 246.567 585.664 244.604 585.936 242.236C586.358 238.515 584.032 235.182 580.75 234.807Z" fill="#FFBD54" fill-opacity="0.09"/>
</g>
<g opacity="0.5">
<path d="M1368.61 336.412C1364.27 334.17 1359.15 334.288 1354.93 336.729C1350.7 339.171 1348.04 343.541 1347.81 348.419L1347.26 360.174C1347.17 362.124 1347.7 364.011 1348.79 365.631C1349.88 367.252 1351.43 368.452 1353.27 369.104C1355.11 369.755 1357.07 369.794 1358.94 369.219C1360.81 368.644 1362.4 367.507 1363.56 365.932L1363.64 365.827C1366.56 361.898 1371.03 359.343 1375.9 358.808C1377.16 358.67 1378.35 358.279 1379.42 357.661C1380 357.324 1380.55 356.919 1381.05 356.452C1382.49 355.123 1383.43 353.406 1383.79 351.486C1384.15 349.566 1383.88 347.624 1383.02 345.869C1382.16 344.115 1380.79 342.713 1379.06 341.816L1368.61 336.412Z" fill="#F3F3F3"/>
<path d="M1343.79 350.728C1345.06 349.155 1345.54 347.119 1345.14 344.994C1344.76 342.973 1343.62 341.104 1341.92 339.732C1340.22 338.361 1338.16 337.635 1336.1 337.687C1333.94 337.743 1332.05 338.64 1330.78 340.213C1328.23 343.373 1329.06 348.305 1332.65 351.207C1335.51 353.515 1339.26 353.848 1341.96 352.29C1342.65 351.892 1343.27 351.371 1343.79 350.728Z" fill="#F3F3F3"/>
<path d="M1350.58 337.845C1354.68 335.473 1355.83 329.736 1353.13 325.056C1350.42 320.374 1344.88 318.495 1340.77 320.867C1336.67 323.238 1335.52 328.976 1338.23 333.658C1340.93 338.338 1346.47 340.217 1350.58 337.845Z" fill="#F3F3F3"/>
<path d="M1364.65 332.502L1364.65 332.502C1365.4 332.347 1366.1 332.075 1366.75 331.704C1369.74 329.974 1371.4 326.108 1370.58 322.114C1370.11 319.814 1368.89 317.799 1367.15 316.439C1365.32 315.016 1363.15 314.472 1361.03 314.907C1358.91 315.343 1357.13 316.699 1356.02 318.727C1354.95 320.663 1354.63 322.996 1355.1 325.295C1356.1 330.146 1360.38 333.378 1364.65 332.502Z" fill="#F3F3F3"/>
<path d="M1379.77 322.453L1379.76 322.452C1375.72 321.995 1372.01 325.348 1371.49 329.929C1370.97 334.509 1373.83 338.611 1377.87 339.072C1379.34 339.241 1380.77 338.902 1382.02 338.182C1384.19 336.926 1385.81 334.511 1386.15 331.597C1386.67 327.016 1383.8 322.914 1379.77 322.453Z" fill="#F3F3F3"/>
</g>
<g opacity="0.5">
<path d="M659.326 570.198C655.843 568.397 651.738 568.492 648.343 570.452C644.948 572.412 642.813 575.92 642.631 579.836L642.193 589.272C642.12 590.838 642.544 592.353 643.419 593.653C644.294 594.954 645.537 595.918 647.015 596.441C648.494 596.963 650.067 596.995 651.565 596.534C653.064 596.072 654.346 595.159 655.274 593.895L655.336 593.81C657.686 590.657 661.267 588.605 665.18 588.176C666.189 588.065 667.145 587.752 668.005 587.255C668.473 586.985 668.913 586.66 669.318 586.284C670.467 585.218 671.226 583.84 671.513 582.298C671.8 580.757 671.587 579.198 670.898 577.789C670.209 576.381 669.109 575.256 667.717 574.536L659.326 570.198Z" fill="#F3F3F3"/>
<path d="M639.401 581.689C640.423 580.427 640.809 578.792 640.489 577.087C640.185 575.464 639.267 573.964 637.904 572.862C636.541 571.762 634.882 571.179 633.231 571.221C631.497 571.266 629.98 571.986 628.961 573.248C626.908 575.786 627.58 579.744 630.459 582.074C632.754 583.927 635.765 584.194 637.932 582.943C638.485 582.624 638.984 582.205 639.401 581.689Z" fill="#F3F3F3"/>
<path d="M644.852 571.348C648.149 569.444 649.068 564.838 646.898 561.081C644.729 557.323 640.28 555.814 636.983 557.718C633.685 559.622 632.768 564.228 634.937 567.986C637.107 571.744 641.554 573.251 644.852 571.348Z" fill="#F3F3F3"/>
<path d="M656.147 567.058L656.147 567.058C656.752 566.934 657.316 566.715 657.831 566.418C660.236 565.029 661.569 561.926 660.911 558.719C660.532 556.873 659.552 555.255 658.153 554.164C656.689 553.021 654.946 552.584 653.246 552.934C651.544 553.284 650.115 554.373 649.22 556C648.365 557.555 648.104 559.428 648.483 561.273C649.284 565.167 652.722 567.762 656.147 567.058Z" fill="#F3F3F3"/>
<path d="M668.283 558.991L668.281 558.991C665.037 558.624 662.056 561.316 661.637 564.993C661.219 568.67 663.517 571.962 666.759 572.333C667.941 572.468 669.089 572.196 670.091 571.618C671.836 570.61 673.138 568.671 673.406 566.332C673.823 562.655 671.525 559.362 668.283 558.991Z" fill="#F3F3F3"/>
</g>
<g opacity="0.5">
<path d="M783.217 1179.82C779.735 1178.02 775.629 1178.12 772.234 1180.08C768.84 1182.04 766.705 1185.54 766.523 1189.46L766.085 1198.9C766.012 1200.46 766.436 1201.98 767.311 1203.28C768.185 1204.58 769.429 1205.54 770.907 1206.07C772.385 1206.59 773.959 1206.62 775.457 1206.16C776.955 1205.7 778.237 1204.78 779.165 1203.52L779.227 1203.43C781.577 1200.28 785.159 1198.23 789.071 1197.8C790.08 1197.69 791.036 1197.38 791.897 1196.88C792.365 1196.61 792.805 1196.28 793.21 1195.91C794.359 1194.84 795.118 1193.46 795.405 1191.92C795.692 1190.38 795.479 1188.82 794.79 1187.41C794.101 1186.01 793.001 1184.88 791.608 1184.16L783.217 1179.82Z" fill="#F3F3F3"/>
<path d="M763.292 1191.31C764.314 1190.05 764.701 1188.42 764.381 1186.71C764.077 1185.09 763.159 1183.59 761.795 1182.49C760.433 1181.39 758.773 1180.8 757.123 1180.85C755.389 1180.89 753.872 1181.61 752.852 1182.87C750.8 1185.41 751.471 1189.37 754.351 1191.7C756.645 1193.55 759.657 1193.82 761.824 1192.57C762.377 1192.25 762.875 1191.83 763.292 1191.31Z" fill="#F3F3F3"/>
<path d="M768.743 1180.97C772.041 1179.07 772.959 1174.46 770.79 1170.71C768.62 1166.95 764.172 1165.44 760.874 1167.34C757.577 1169.25 756.659 1173.85 758.829 1177.61C760.998 1181.37 765.446 1182.88 768.743 1180.97Z" fill="#F3F3F3"/>
<path d="M780.039 1176.68L780.039 1176.68C780.644 1176.56 781.207 1176.34 781.723 1176.04C784.128 1174.65 785.461 1171.55 784.802 1168.34C784.423 1166.5 783.444 1164.88 782.045 1163.79C780.581 1162.65 778.838 1162.21 777.137 1162.56C775.436 1162.91 774.006 1164 773.112 1165.62C772.257 1167.18 771.995 1169.05 772.375 1170.9C773.175 1174.79 776.613 1177.39 780.039 1176.68Z" fill="#F3F3F3"/>
<path d="M792.175 1168.62L792.173 1168.62C788.929 1168.25 785.948 1170.94 785.528 1174.62C785.111 1178.29 787.409 1181.59 790.651 1181.96C791.833 1182.09 792.981 1181.82 793.982 1181.24C795.728 1180.23 797.029 1178.3 797.298 1175.96C797.715 1172.28 795.417 1168.99 792.175 1168.62Z" fill="#F3F3F3"/>
</g>
<g opacity="0.09">
<path d="M173.217 1116.82C169.735 1115.02 165.629 1115.12 162.234 1117.08C158.84 1119.04 156.705 1122.54 156.523 1126.46L156.085 1135.9C156.012 1137.46 156.436 1138.98 157.311 1140.28C158.185 1141.58 159.429 1142.54 160.907 1143.07C162.385 1143.59 163.959 1143.62 165.457 1143.16C166.955 1142.7 168.237 1141.78 169.165 1140.52L169.227 1140.43C171.577 1137.28 175.159 1135.23 179.071 1134.8C180.08 1134.69 181.036 1134.38 181.897 1133.88C182.365 1133.61 182.805 1133.28 183.21 1132.91C184.359 1131.84 185.118 1130.46 185.405 1128.92C185.692 1127.38 185.479 1125.82 184.79 1124.41C184.101 1123.01 183.001 1121.88 181.608 1121.16L173.217 1116.82Z" fill="#C3C3C3"/>
<path d="M153.292 1128.31C154.314 1127.05 154.701 1125.42 154.381 1123.71C154.077 1122.09 153.159 1120.59 151.795 1119.49C150.433 1118.39 148.773 1117.8 147.123 1117.85C145.389 1117.89 143.872 1118.61 142.852 1119.87C140.8 1122.41 141.471 1126.37 144.351 1128.7C146.645 1130.55 149.657 1130.82 151.824 1129.57C152.377 1129.25 152.875 1128.83 153.292 1128.31Z" fill="#C3C3C3"/>
<path d="M158.743 1117.97C162.041 1116.07 162.959 1111.46 160.79 1107.71C158.62 1103.95 154.172 1102.44 150.874 1104.34C147.577 1106.25 146.659 1110.85 148.829 1114.61C150.998 1118.37 155.446 1119.88 158.743 1117.97Z" fill="#C3C3C3"/>
<path d="M170.039 1113.68L170.039 1113.68C170.644 1113.56 171.207 1113.34 171.723 1113.04C174.128 1111.65 175.461 1108.55 174.802 1105.34C174.423 1103.5 173.444 1101.88 172.045 1100.79C170.581 1099.65 168.838 1099.21 167.137 1099.56C165.436 1099.91 164.006 1101 163.112 1102.62C162.257 1104.18 161.995 1106.05 162.375 1107.9C163.175 1111.79 166.613 1114.39 170.039 1113.68Z" fill="#C3C3C3"/>
<path d="M182.175 1105.62L182.173 1105.62C178.929 1105.25 175.948 1107.94 175.528 1111.62C175.111 1115.29 177.409 1118.59 180.651 1118.96C181.833 1119.09 182.981 1118.82 183.982 1118.24C185.728 1117.23 187.029 1115.3 187.298 1112.96C187.715 1109.28 185.417 1105.99 182.175 1105.62Z" fill="#C3C3C3"/>
</g>
<g opacity="0.09">
<path d="M1365.22 1655.82C1361.73 1654.02 1357.63 1654.12 1354.23 1656.08C1350.84 1658.04 1348.7 1661.54 1348.52 1665.46L1348.08 1674.9C1348.01 1676.46 1348.44 1677.98 1349.31 1679.28C1350.19 1680.58 1351.43 1681.54 1352.91 1682.07C1354.39 1682.59 1355.96 1682.62 1357.46 1682.16C1358.96 1681.7 1360.24 1680.78 1361.17 1679.52L1361.23 1679.43C1363.58 1676.28 1367.16 1674.23 1371.07 1673.8C1372.08 1673.69 1373.04 1673.38 1373.9 1672.88C1374.36 1672.61 1374.8 1672.28 1375.21 1671.91C1376.36 1670.84 1377.12 1669.46 1377.4 1667.92C1377.69 1666.38 1377.48 1664.82 1376.79 1663.41C1376.1 1662.01 1375 1660.88 1373.61 1660.16L1365.22 1655.82Z" fill="#DBDBDB"/>
<path d="M1345.29 1667.31C1346.31 1666.05 1346.7 1664.42 1346.38 1662.71C1346.08 1661.09 1345.16 1659.59 1343.8 1658.49C1342.43 1657.39 1340.77 1656.8 1339.12 1656.85C1337.39 1656.89 1335.87 1657.61 1334.85 1658.87C1332.8 1661.41 1333.47 1665.37 1336.35 1667.7C1338.65 1669.55 1341.66 1669.82 1343.82 1668.57C1344.38 1668.25 1344.88 1667.83 1345.29 1667.31Z" fill="#DBDBDB"/>
<path d="M1350.74 1656.97C1354.04 1655.07 1354.96 1650.46 1352.79 1646.71C1350.62 1642.95 1346.17 1641.44 1342.87 1643.34C1339.58 1645.25 1338.66 1649.85 1340.83 1653.61C1343 1657.37 1347.45 1658.88 1350.74 1656.97Z" fill="#DBDBDB"/>
<path d="M1362.04 1652.68L1362.04 1652.68C1362.64 1652.56 1363.21 1652.34 1363.72 1652.04C1366.13 1650.65 1367.46 1647.55 1366.8 1644.34C1366.42 1642.5 1365.44 1640.88 1364.05 1639.79C1362.58 1638.65 1360.84 1638.21 1359.14 1638.56C1357.44 1638.91 1356.01 1640 1355.11 1641.62C1354.26 1643.18 1354 1645.05 1354.37 1646.9C1355.18 1650.79 1358.61 1653.39 1362.04 1652.68Z" fill="#DBDBDB"/>
<path d="M1374.17 1644.62L1374.17 1644.62C1370.93 1644.25 1367.95 1646.94 1367.53 1650.62C1367.11 1654.29 1369.41 1657.59 1372.65 1657.96C1373.83 1658.09 1374.98 1657.82 1375.98 1657.24C1377.73 1656.23 1379.03 1654.3 1379.3 1651.96C1379.71 1648.28 1377.42 1644.99 1374.17 1644.62Z" fill="#DBDBDB"/>
</g>
<g opacity="0.5">
<path d="M1069.22 752.822C1065.73 751.022 1061.63 751.117 1058.23 753.077C1054.84 755.036 1052.7 758.545 1052.52 762.461L1052.08 771.897C1052.01 773.462 1052.44 774.978 1053.31 776.278C1054.19 777.579 1055.43 778.543 1056.91 779.066C1058.39 779.588 1059.96 779.62 1061.46 779.158C1062.96 778.697 1064.24 777.784 1065.17 776.52L1065.23 776.435C1067.58 773.281 1071.16 771.23 1075.07 770.801C1076.08 770.69 1077.04 770.376 1077.9 769.879C1078.36 769.609 1078.8 769.285 1079.21 768.909C1080.36 767.843 1081.12 766.464 1081.4 764.923C1081.69 763.382 1081.48 761.822 1080.79 760.414C1080.1 759.005 1079 757.88 1077.61 757.16L1069.22 752.822Z" fill="#F3F3F3"/>
<path d="M1049.29 764.314C1050.31 763.051 1050.7 761.417 1050.38 759.712C1050.08 758.089 1049.16 756.589 1047.8 755.487C1046.43 754.386 1044.77 753.803 1043.12 753.846C1041.39 753.89 1039.87 754.61 1038.85 755.873C1036.8 758.41 1037.47 762.369 1040.35 764.699C1042.65 766.552 1045.66 766.819 1047.82 765.568C1048.38 765.249 1048.88 764.83 1049.29 764.314Z" fill="#F3F3F3"/>
<path d="M1054.74 753.972C1058.04 752.068 1058.96 747.463 1056.79 743.705C1054.62 739.947 1050.17 738.439 1046.87 740.343C1043.58 742.247 1042.66 746.853 1044.83 750.611C1047 754.368 1051.45 755.876 1054.74 753.972Z" fill="#F3F3F3"/>
<path d="M1066.04 749.683L1066.04 749.683C1066.64 749.558 1067.21 749.34 1067.72 749.042C1070.13 747.654 1071.46 744.55 1070.8 741.344C1070.42 739.498 1069.44 737.88 1068.05 736.788C1066.58 735.646 1064.84 735.209 1063.14 735.558C1061.44 735.908 1060.01 736.997 1059.11 738.625C1058.26 740.179 1058 742.052 1058.37 743.898C1059.18 747.791 1062.61 750.387 1066.04 749.683Z" fill="#F3F3F3"/>
<path d="M1078.17 741.616L1078.17 741.616C1074.93 741.249 1071.95 743.941 1071.53 747.617C1071.11 751.294 1073.41 754.587 1076.65 754.957C1077.83 755.093 1078.98 754.821 1079.98 754.243C1081.73 753.235 1083.03 751.295 1083.3 748.956C1083.71 745.279 1081.42 741.987 1078.17 741.616Z" fill="#F3F3F3"/>
</g>
<g opacity="0.5">
<path d="M504.217 1348.82C500.735 1347.02 496.629 1347.12 493.234 1349.08C489.84 1351.04 487.705 1354.54 487.523 1358.46L487.085 1367.9C487.012 1369.46 487.436 1370.98 488.311 1372.28C489.185 1373.58 490.429 1374.54 491.907 1375.07C493.385 1375.59 494.959 1375.62 496.457 1375.16C497.955 1374.7 499.237 1373.78 500.165 1372.52L500.227 1372.43C502.577 1369.28 506.159 1367.23 510.071 1366.8C511.08 1366.69 512.036 1366.38 512.897 1365.88C513.365 1365.61 513.805 1365.28 514.21 1364.91C515.359 1363.84 516.118 1362.46 516.405 1360.92C516.692 1359.38 516.479 1357.82 515.79 1356.41C515.101 1355.01 514.001 1353.88 512.608 1353.16L504.217 1348.82Z" fill="#F3F3F3"/>
<path d="M484.292 1360.31C485.314 1359.05 485.701 1357.42 485.381 1355.71C485.077 1354.09 484.159 1352.59 482.795 1351.49C481.433 1350.39 479.773 1349.8 478.123 1349.85C476.389 1349.89 474.872 1350.61 473.852 1351.87C471.8 1354.41 472.471 1358.37 475.351 1360.7C477.645 1362.55 480.657 1362.82 482.824 1361.57C483.377 1361.25 483.875 1360.83 484.292 1360.31Z" fill="#F3F3F3"/>
<path d="M489.743 1349.97C493.041 1348.07 493.959 1343.46 491.79 1339.71C489.62 1335.95 485.172 1334.44 481.874 1336.34C478.577 1338.25 477.659 1342.85 479.829 1346.61C481.998 1350.37 486.446 1351.88 489.743 1349.97Z" fill="#F3F3F3"/>
<path d="M501.039 1345.68L501.039 1345.68C501.644 1345.56 502.207 1345.34 502.723 1345.04C505.128 1343.65 506.461 1340.55 505.802 1337.34C505.423 1335.5 504.444 1333.88 503.045 1332.79C501.581 1331.65 499.838 1331.21 498.137 1331.56C496.436 1331.91 495.006 1333 494.112 1334.62C493.257 1336.18 492.995 1338.05 493.375 1339.9C494.175 1343.79 497.613 1346.39 501.039 1345.68Z" fill="#F3F3F3"/>
<path d="M513.175 1337.62L513.173 1337.62C509.929 1337.25 506.948 1339.94 506.528 1343.62C506.111 1347.29 508.409 1350.59 511.651 1350.96C512.833 1351.09 513.981 1350.82 514.982 1350.24C516.728 1349.23 518.029 1347.3 518.298 1344.96C518.715 1341.28 516.417 1337.99 513.175 1337.62Z" fill="#F3F3F3"/>
</g>
<g opacity="0.5">
<path d="M767.667 77.0342H767.663C766.12 75.4837 763.688 75.259 761.887 76.5002L749.996 64.6127C751.407 62.5415 750.872 59.7182 748.801 58.3069C746.729 56.8955 743.906 57.4305 742.495 59.5017C741.965 60.2799 741.69 61.2039 741.708 62.1453C740.472 62.1094 739.277 62.5851 738.403 63.4598C736.591 65.1912 736.525 68.0639 738.257 69.8761C739.819 71.511 742.346 71.7467 744.183 70.429L756.071 82.3165C754.659 84.3877 755.194 87.211 757.266 88.6223C759.337 90.0336 762.16 89.4987 763.571 87.4274C764.102 86.6491 764.377 85.7252 764.358 84.7838C766.864 84.8408 768.942 82.8559 768.999 80.35C769.027 79.1092 768.546 77.9109 767.667 77.0342Z" fill="#F3F3F3"/>
</g>
<g opacity="0.5">
<path d="M1052.67 486.516H1052.66C1051.12 484.965 1048.69 484.74 1046.89 485.982L1035 474.094C1036.41 472.023 1035.87 469.2 1033.8 467.788C1031.73 466.377 1028.91 466.912 1027.49 468.983C1026.96 469.761 1026.69 470.685 1026.71 471.627C1025.47 471.591 1024.28 472.067 1023.4 472.941C1021.59 474.673 1021.53 477.545 1023.26 479.358C1024.82 480.992 1027.35 481.228 1029.18 479.91L1041.07 491.798C1039.66 493.869 1040.19 496.692 1042.27 498.104C1044.34 499.515 1047.16 498.98 1048.57 496.909C1049.1 496.131 1049.38 495.207 1049.36 494.265C1051.86 494.322 1053.94 492.337 1054 489.831C1054.03 488.591 1053.55 487.392 1052.67 486.516Z" fill="#F3F3F3"/>
</g>
<g opacity="0.5">
<path d="M1386.67 71.5156H1386.66C1385.12 69.9651 1382.69 69.7405 1380.89 70.9817L1369 59.0941C1370.41 57.0229 1369.87 54.1997 1367.8 52.7884C1365.73 51.3769 1362.91 51.912 1361.49 53.9832C1360.96 54.7614 1360.69 55.6853 1360.71 56.6267C1359.47 56.5908 1358.28 57.0665 1357.4 57.9413C1355.59 59.6726 1355.53 62.5453 1357.26 64.3576C1358.82 65.9925 1361.35 66.2282 1363.18 64.9104L1375.07 76.798C1373.66 78.8692 1374.19 81.6924 1376.27 83.1037C1378.34 84.515 1381.16 83.9801 1382.57 81.9088C1383.1 81.1306 1383.38 80.2067 1383.36 79.2653C1385.86 79.3223 1387.94 77.3373 1388 74.8315C1388.03 73.5907 1387.55 72.3923 1386.67 71.5156Z" fill="#F3F3F3"/>
</g>
<g opacity="0.5">
<path d="M332.667 252.516H332.663C331.12 250.965 328.688 250.74 326.887 251.982L314.996 240.094C316.407 238.023 315.872 235.2 313.801 233.788C311.729 232.377 308.906 232.912 307.495 234.983C306.965 235.761 306.69 236.685 306.708 237.627C305.472 237.591 304.277 238.067 303.403 238.941C301.591 240.673 301.525 243.545 303.257 245.358C304.819 246.992 307.346 247.228 309.183 245.91L321.071 257.798C319.659 259.869 320.194 262.692 322.266 264.104C324.337 265.515 327.16 264.98 328.571 262.909C329.102 262.131 329.377 261.207 329.358 260.265C331.864 260.322 333.942 258.337 333.999 255.831C334.027 254.591 333.546 253.392 332.667 252.516Z" fill="#F3F3F3"/>
</g>
<g opacity="0.09">
<path d="M30.6671 538.516H30.663C29.1198 536.965 26.6885 536.74 24.8871 537.982L12.9955 526.094C14.4068 524.023 13.8719 521.2 11.8006 519.788C9.72939 518.377 6.90625 518.912 5.49483 520.983C4.96456 521.761 4.68952 522.685 4.70782 523.627C3.47225 523.591 2.27662 524.067 1.40325 524.941C-0.409001 526.673 -0.474526 529.545 1.25683 531.358C2.81872 532.992 5.34588 533.228 7.18321 531.91L19.0708 543.798C17.6594 545.869 18.1944 548.692 20.2657 550.104C22.3369 551.515 25.1601 550.98 26.5715 548.909C27.1017 548.131 27.3768 547.207 27.3585 546.265C29.8642 546.322 31.9418 544.337 31.9988 541.831C32.0271 540.591 31.5458 539.392 30.6671 538.516Z" fill="#78C0DE"/>
</g>
<g opacity="0.5">
<path d="M420.959 752.883H420.953C418.59 750.509 414.867 750.165 412.108 752.066L393.899 733.863C396.06 730.691 395.241 726.368 392.07 724.207C388.898 722.046 384.575 722.865 382.414 726.037C381.602 727.228 381.181 728.643 381.209 730.085C379.317 730.03 377.486 730.758 376.149 732.098C373.374 734.749 373.273 739.148 375.925 741.923C378.316 744.426 382.186 744.787 384.999 742.769L403.202 760.972C401.041 764.143 401.86 768.467 405.032 770.628C408.203 772.789 412.526 771.97 414.688 768.798C415.5 767.606 415.921 766.191 415.893 764.75C419.73 764.837 422.911 761.798 422.998 757.961C423.042 756.061 422.305 754.226 420.959 752.883Z" fill="#F3F3F3"/>
</g>
<g opacity="0.5">
<path d="M1280.96 1238.88H1280.95C1278.59 1236.51 1274.87 1236.17 1272.11 1238.07L1253.9 1219.86C1256.06 1216.69 1255.24 1212.37 1252.07 1210.21C1248.9 1208.05 1244.58 1208.87 1242.41 1212.04C1241.6 1213.23 1241.18 1214.64 1241.21 1216.08C1239.32 1216.03 1237.49 1216.76 1236.15 1218.1C1233.37 1220.75 1233.27 1225.15 1235.92 1227.92C1238.32 1230.43 1242.19 1230.79 1245 1228.77L1263.2 1246.97C1261.04 1250.14 1261.86 1254.47 1265.03 1256.63C1268.2 1258.79 1272.53 1257.97 1274.69 1254.8C1275.5 1253.61 1275.92 1252.19 1275.89 1250.75C1279.73 1250.84 1282.91 1247.8 1283 1243.96C1283.04 1242.06 1282.3 1240.23 1280.96 1238.88Z" fill="#F3F3F3"/>
</g>
<g opacity="0.07">
<path d="M426.376 1161.78H426.371C424.49 1159.9 421.527 1159.62 419.331 1161.13L404.838 1146.65C406.558 1144.12 405.906 1140.68 403.382 1138.96C400.858 1137.24 397.417 1137.89 395.697 1140.42C395.051 1141.37 394.715 1142.49 394.738 1143.64C393.232 1143.6 391.775 1144.17 390.71 1145.24C388.502 1147.35 388.422 1150.85 390.532 1153.06C392.435 1155.05 395.515 1155.34 397.755 1153.73L412.242 1168.22C410.522 1170.75 411.174 1174.19 413.699 1175.91C416.223 1177.63 419.664 1176.98 421.384 1174.45C422.03 1173.5 422.365 1172.38 422.343 1171.23C425.397 1171.3 427.929 1168.88 427.999 1165.83C428.033 1164.31 427.446 1162.85 426.376 1161.78Z" fill="#FFBD54"/>
</g>
<g opacity="0.07">
<path d="M44.3339 1613.88H44.3288C42.3997 1611.94 39.3606 1611.66 37.1089 1613.21L22.2444 1598.35C24.0086 1595.76 23.3399 1592.23 20.7508 1590.47C18.1617 1588.71 14.6328 1589.37 12.8685 1591.96C12.2057 1592.94 11.8619 1594.09 11.8848 1595.27C10.3403 1595.22 8.84577 1595.82 7.75407 1596.91C5.48875 1599.08 5.40684 1602.67 7.57104 1604.93C9.5234 1606.98 12.6824 1607.27 14.979 1605.62L29.8384 1620.48C28.0743 1623.07 28.743 1626.6 31.3321 1628.36C33.9211 1630.13 37.4502 1629.46 39.2143 1626.87C39.8772 1625.9 40.221 1624.74 40.1981 1623.57C43.3302 1623.64 45.9272 1621.16 45.9985 1618.02C46.0339 1616.47 45.4323 1614.98 44.3339 1613.88Z" fill="#FFBD54"/>
</g>
</svg>
